<svg xmlns="http://www.w3.org/2000/svg" width="512" height="512" viewBox="0 0 512 512"><path fill="#0b0f14" d="M0 0h512v512H0z"/><path fill="#cbd5e1" fill-rule="evenodd" d="M372 325h-3l1 1-1 1-1 5-2 2 1 1-2 2 1 1-2 2 1 2-2 2 1 2-2 2 1 2-2 3 1 1-2 3 1 3-2 4 1 3-2 4 1 2v3l-2 4v4l2 2-1 1 2 2-1 1 2 2v2l2 3v2l2 4-1 1 2 2v2h3l15-8h2l4-2 1-2 4-1v-1l1-1h2l1-2 1 1 1-2h2l1-2h2l1-2h2l1-2h1l3-3h2v-1l2-2h2v-1l2-2h1v-1l-2-2 1-1-2-2 1-1-2-3-1 1-1-1-2 2-1-1-4 3-1-1-2 2-1-1-2 2h-1l-2-2 1-2h2l1-1 1 1 1-2 2 1 4-3 1 1 2-2 1 1v-1l2-1-2-3 1-1-2-2v-2l-2 1-1-1-4 3-1-1-5 3-1-1-3 2h-2l-2-2-1 1-1-2-1 1-3-3-1-4h-1l-3-4v-2l-1-2-2-1-1-4-2-1v-2l-2-1v-1l-2-2v-2l-2-1Zm-232-1v1l-2 1v1l-2 2v2l-2 1v2l-2 1v2l-2 1v2l-1 2-2 1v2l-2 1-1 4-2 1v2l-2 1-4 4h-2l-1 1-4-2-1 1-2-2-1 1-2-2-1 1-2-2-1 1-2-2-1 1-1-1-2 2 1 1v1l-2 2 1 1v2l1 1 1-1 4 3 1-1 2 2 1-1 2 2 1-1 3 3-2 2-2-2-1 1-2-2-1 1-2-2-1 1-2-2-1 1-2-2-3 1 1 1-2 2 1 2-2 2 1 1v2l2 1 1 2 3 1 1 2h2l3 3h1l1 2h2l1 2 4 1 1 2h2l1 2 6 2 1 2 6 2 1 2 6 3h3l1 2 1-1 3 2h2l1-1v-2l2-2-1-1 2-2-1-1 2-2-1-1 2-1-1-1 2-2-1-1 2-2-1-1 2-4v-3l-1-1v-4l1-2-2-4 1-2-1-2v-3l-1-1 1-2-2-4 1-1-2-3 1-2-2-2 1-2-2-3 1-1-2-3 1-1-2-2 1-1-2-2 1-1-2-2 1-1-2-2 1-1Zm-32 46 1-1 1 1-1 1Zm237-65-5 8v3l-2 1 1 1-3 4 1 1-3 5v2l-2 2 1 1-3 4 1 1-2 2 1 1-2 2 1 1-2 2 1 1-2 2 1 2-2 2 1 1-2 3 1 2-2 2 1 2-2 3 1 2-2 4 1 1-1 2v3l-1 1 1 1v3l-2 4 1 2v5l-1 1v5l-1 1v6l1 1v18h1l2-2 2 1 2-2 1 1 3-2 1 1 2-2 1 1 2-2 1 1 2-2 1 1 2-2 1 1 2-2 1 1 2-2 1 1 2-2v-27l1-1v-4l1-1-1-8 2-4-1-4 2-4-1-2 2-3-1-1v-2l2-2-1-3 2-2-1-2 2-3-1-1 2-3-1-1 2-2-1-1 2-2-1-1 2-2-1-1 2-2-1-1 2-2-1-1 1-2h-1l-3-3v-1h-2l-2-3h-2l-1-2-3-1-1-2h-2Zm-179 0-2 2h-2l-2 3h-2l-1 2h-2v1l-2 2h-2v1l-2 2h-2l-2 3 2 2v2l1 1-1 1 2 2-1 1 2 2-1 1 2 2-1 1 2 3-1 1 2 3-1 1 2 3-1 1 2 3-1 2 2 3-1 3 2 3-1 2 1 4 1 1-1 6 2 4v6l-1 1v5l1 1v23h1l2 2 1-1 2 2 1-1 2 2 1-1 2 2 1-1 2 2 1-1 2 2 1-1 2 2 1-1 2 2 2-1 3 2 1-1 2 2 2-2v-5l-1-1v-13l-1-1v-9l1-1v-2l-1-1v-4l-1-1v-3l1-2-2-4 1-4-2-3 1-3-2-3 1-1-2-3 1-2-2-2 1-2-2-2 1-1-2-3 1-1-2-2 1-1-2-2 1-1-2-2 1-1-3-4 1-1-2-2v-2l-2-3 1-1-2-2-2-4 1-1-3-4-2-4 1-1-2-1Zm223-16-2 1v4h1l1 1v2l2 1-1 1 2 1v2l4 5-1 1 2 1-1 1 2 1-1 1 2 1-1 1 2 4 2 2-1 1 3 4-1 1 3 4-1 1 2 2-1 1 2 2-1 1 2 2v3l1 1-1 1 2 2v2l2 1 3-3-2-2 1-1-2-2 1-2-2-2 1-1-2-2 1-1-2-2 1-1-2-2 1-1-3-4 1-1-3-4 1-1-2-2-3-6 1-1h-1l-1-1 1-1-2-1 1-1-2-1-1-4-2-1 1-1-2-1v-2l-2-1v-2h-1Zm-266 0h-3v2l-4 4v2l-3 3v2l-6 12-3 4 1 1-3 4 1 1-2 2 1 1-2 2 1 1-1 1v2l-2 2 1 1-2 2 1 1-2 2 1 1-2 3 3 4 3-3-1-1 2-3-1-1 2-2-1-1 2-2-1-1 2-2-1-1 2-2-1-1 2-2-1-1 2-1-1-1 2-3v-2l3-4v-3l2-1-1-1 2-1-1-1 3-3v-2l2-4 2-2v-1l2-1v-2l1-1-1-1Zm33-26-2 1-1-1-1 2-1-1-6 4-1-1-1 2-1-1-1 2-1-1-2 1-1 2-1-1-1 2-1-1-1 2-4 1-1 2-4 1-1 2 2 4 2 1v2l2 1v2l2 1v2l3 3v2l3 3-1 1 2 1-1 1 2 1-1 1 2 1-1 1 2 1-1 1 2 1-1 1 2 2 5-2 1-2 3-1v-1l4-2 1-2h2l2-3 3-1v-1l3-4-1-1v-6l1-1-3-4 1-1-4-6 1-1-2-2-1-2 1-1-2-1 1-1-2-2Zm199-1-1 3-2 2 1 1-2 1 1 1-3 4 1 1-2 1 1 1-3 4 1 1-2 3v2l-2 4 1 1 1 5 4 4v1h2l2 2v1h2l2 2v1h2l1 2 3 1 2 3h3l1-3 2-2v-2l2-2-1-1 2-1-1-1 2-1 1-4 2-1 2-6 2-1v-2l3-2v-2l2-1v-3l-6-3-1-2-6-2-1-2-1 1-6-3-4-3-1 1Zm-191-3-2 2v2l2 3-1 1 3 4-1 1 2 2 2 4-1 1 3 4-1 1 2 2-1 1v2l1 1-1 5 1 1-2 2 1 1-1 2-2 1 2 2 4 8-1 1 3 4 2 4-1 1 3 4-1 1 3 4v2l1 1-1 1 2 2v2l1 1-1 1 2 2-1 1 2 2-1 1 2 2-1 2 2 2-1 1 2 3-1 2 2 3-1 1 2 3-1 3 2 3-1 2 1 4 1 1-1 5 1 1v3l1 1v3l-1 1v4l1 1-1 1 1 1v19l1 1-1 5 1 2 2-1 2 2 1-1h2l2 2 2-1 3 2 3-1 4 2 2-1 6 1 1 1 2-1h4l4 2h3l1-1h30l1 1h3l4-2 1 1 1-1h3l2 1 1-1h3l1-1 4 1 4-2 2 1 4-2 2 1 2-2 2 1 3-2 1 1 2-2v-16l-1-1v-8l1-1v-8l1-1-1-3 1-1v-4l1-1-1-4 2-4-1-4 2-2-1-2 2-4-1-1 2-3-1-2 2-2-1-1 1-1v-3l2-2-1-1 2-2-1-1 2-2-1-1 2-2-1-1 2-2-1-1 1-1v-2l3-4-1-1 3-4-1-1 3-6 3-4-1-1 1-2 2-1-1-1 1-1v-3l-2-4 1-1-2-3v-4l2-3-1-1 2-2-1-1 3-4-1-1 3-4-1-1 4-6-1-1 2-4-5-2-2-2h-2l-1 1 1 1-2 2 1 1-1 1v2l-2 2 1 1-3 4 1 1-2 1 1 1-2 1 1 1-2 1 1 1-2 1-2 6-2 1v2l-2 1v2l-2 1v2l-2 1v2l-2 1v2l-2 2v1l-3 3v1l-2 1v2l-2 2h-1v2l-2 2h-1l-1 3-2 1v2l-2 2h-1v2l-3 3v1l-2 1v2l-2 2h-1v2l-2 2h-1v1l-2 2-6 3h-6l-1-1h-13l-1 1-22-1-1 1h-5l-3-2-1 1-1-2h-2l-1-1-1-3h-1l-2-2-1-3h-1l-2-4-2-1v-2l-2-1-1-3h-1l-2-4-2-1v-2h-1l-2-2v-2h-1l-2-2v-2h-1l-2-2v-2l-2-1v-2h-1l-2-4-2-1-1-4-2-1v-1l-2-2v-2l-2-1-2-4v-2l-3-6-3-4 1-1-2-2v-3l-2-2 1-2-2-2h-2Zm74 97 2-2 1 1h26l1-1 4 2 1 2-4 3h-28l-3-2 1-1Zm98-98-1-1 1-2h-1l-2-2-2 1v1l-2 1v2l-2 1v1l-6 6h-1l-2 3h-2l-1 2-8 3v1l-2 2h-1l-1 3-2 1v2l-2 1-2 4-2 2h-1l-5 6h-2l-2 2h-1l-1 2-1-1-2 2-1-1-2 2-2-1-2 2-3-1-4 2h-3l-1-1h-13l-1 1h-2l-1-1h-3l-1-1-2 1-3-2-2 1-3-2-1 1-1-2-1 1-2-1-1-2h-2l-2-3-4-2v-1l-6-6v-2l-2-1-1-3h-1l-1-2-4-3v-1l-1 1-1-2-6-2-2-2v-1h-2l-1-2h-1l-1-2-5-4v-2h-1l-2-3h-2l-3 2 2 2-1 1 2 2-1 1 2 2-1 1 3 4-1 1 2 1-1 1 1 2 2 1-1 1 2 1-1 1 2 1 1 4 2 1 1 3 3 3 1 3 2 2 2 4 3 3v2h1l1 2h2l2 2 1-1 2 2 1-1 2 2 4 2v1l2 2v2l4 5 2 4v2l2 2 1 4h1l2 3h1l2 2 1-1 1 1h5l1 1h28l1-1h6l1-1 1 1 2-1v-1l3-3 1-3 2-2v-2l2-4 2-1-1-1 2-1 2-4v-2l2-1v-1l2-1 1-2 1 1 2-2 1 1 2-2 1 1 2-1 4-5h1v-2l2-2v-1l2-1v-2l2-2 4-7 2-1v-2l2-4 2-1 3-6v-3l3-4-1-1 2-2-1-1Zm-165-39 2 3-1 1 4 6-1 1 2 1 2 4v2l2 1v2l2 1v2h1l3 3v1l8 7v1h2l2 2h1l1 2h2l1 2 4 1 4 2 2 2 1-1 1 1h2l2 2 1-1 2 2 1-1 2 2 1-1h1l2 2 3-1 2 2 4-1 3 2 2-1h22l2 1 4-2h2l1 1 3-2 2 1 3-2 1 1 2-2h3l1-1 1 1 4-3 1 1 4-3 4-2h2l3-3h2l1-2h2v-1l3-3h1l6-5 1-3 3-3h1v-2l2-2v-1l2-1 1-4 3-4-1-1 3-4-1-1 1-2h-1v1l-2 2v2l-2 1 1 1-3 2v2l-3 3h-1v1l-2 1-2 2v1l-3 2-1 2-3 1v1l-2 2h-2l-1 2-4 1-1 2-8 4-1-1-1 2-1-1-2 2-1-1-2 2-1-1-2 2-1-1-2 2-2-1-2 2-2-1-3 2-2-1-4 2-7-1-1 1h-5l-1 1h-3l-1-1h-3l-1-1-7 1-4-2-2 1-4-2-2 1-2-2-2 1-2-2-1 1-2-2-1 1-2-2-1 1-3-2h-2l-1-2-1 1-4-2-1-2-4-1-1-2-5-2-2-3-3-1-9-9v-2l-3-2v-2l-2-1-1-4-2-2Zm178-11v2l-2 2 1 2-3 6 1 1-2 1 1 1-2 2 1 1-3 4v2l-2 2-1 4-2 1-2 4v3l3 3 6 3 1-1 12 6 1-1 2 2 1-1 6 3 2 2 4 2 1-1 1 2 1-1 5 4h2v-24l1-1v-5l-1-1v-4l-1-1 1-2-2-2v-2l-1-1 1-1-2-1 1-1-2-1-1-3h-1l-4-5h-2l-1-2-2-1-1 1-1-1h-2l-2-2-2 1-2-1Zm-188 0h-7l-1 1-2-1-3 2-1-1-4 3h-2v1l-6 5-2 4-2 1 1 1-2 1 1 1-2 2 1 1-2 3 1 1v3l-1 1v31l2-1 1 1 1-2 12-6 1 1 4-2 2-2 1 1 2-2h2l1-1 2 1 14-8 1 1 2-4v-2l-1-1v-2l-2-1 1-1-2-1v-2l-3-4v-2l-2-2v-3l-2-2 1-1-2-2v-2l-1-1 1-1-2-3 1-2Zm155-11-1 1h-2l-1-1v1l-4 5v2l4 4h2l4-4 1-2v-2Zm-2-40-3 3h-1l1 1-1 1 1 2-1 2 2 2-1 2 2 3-1 1 1 2v12l1 2 4 2 4-4 1-2-1-2v-8l1-2-2-3v-2l1-1-2-3 1-1-2-2 1-1h-1l-3-4-1 1Zm38-1-2 1-1 2v2l1 1v8l1 1v6l-1 1v3l1 1v6l-1 1v4l-1 1 1 2v2l-1 1 1 1h2l1-1 1 1 5-5v-2l2-3-1-2v-6l1-1-1-12 1-2-2-3-1-4-3-3h-2Zm-193 0-3 2-1-1v1l-2 1-1 2h-1l1 1-2 2 1 4-2 4v13l2 4-1 4 2 2v1l4 3v1l1-1h5l-1-1v-3l-1-1 1-2v-2l-1-1v-19l1-1-1-8 1-1v-3Zm78-32h-1l-2-2h-2l-2 2-1-1-2 2-1-1-4 3-4 2h-2l-1 2h-2l-1 2h-2l-1 2-8 8-2 1v2l-2 2v1l-2 2-4 7 1 1-2 3v3l-2 2 1 1-2 4 1 1v7l2 2 4 1 4-3v-2l2-3-1-3 2-2-1-2 4-6-1-1 1-2 2-1 1-4 4-4v-1l9-8h2l1-2h2l1-2 1 1 1-2 1 1 4-3 1 1 2-1v-1l2-2v-5Zm3-22-3 2-2-1-3 2-1-1-3 2-1-1-2 2-1-1-4 3-1-1-4 3-8 3-1 2h-2l-1 2h-2v1l-4 2v1l-3 3-4 2-3 3-2 4-2 2h-1v2l-2 1v2l-2 1-1 4-2 1-2 4 1 1-3 4 1 1-2 2v2l-1 1 1 1-2 2 1 1-2 3 1 1v2l-2 3v4l1 1v6l-1 1v4l2 3-1 3 2 2-1 2 2 2-1 1 2 2-1 1 2 2 2 4-1 1 3 3 1 4 2 1v2h1l2 2 2 4 7 7 3 1 2 2v1h2l1 2h2l1 2 6 2 1 2 1-1 6 4 1-1 1 2 1-1 2 2 1-1 2 2 1-1 3 2 1-1 3 2 2-1 3 2 4-1 3 2 2-1h18l2 1 4-2h2l1 1 3-2 2 1 3-2 1 1 3-2 1 1 2-2 1 1 2-2 1 1 1-2 1 1 4-3 1 1v-1l3-2 1 1 1-2 10-5 1-2h2v-1l10-10h1l1-3 2-2h1v-2l2-1 1-4 2-1-1-1 2-4 2-2-1-1 2-2-1-1 2-2-1-1 2-3-1-2 2-3-1-2 1-2v-11l-1-1 1-5-2-2 1-3-2-2 1-2-2-2 1-1-2-2 1-1-3-4-4-8v-2l-2-1v-2l-2-1v-2l-4-3v-2l-7-7-3-1-3-3v-1h-2l-1-2-5-2-1-2-4-1-1-2-1 1-1-2-1 1-5-3h-2l-2-2-1 1-2-2-1 1-3-2-1 1-2-2-2 1-3-2-2 1-8-1-1-1h-9l-1 1h-4l-1 1h-3Zm-21 13 1 1 4-3 1 1 2-2 1 1 2-2 2 1 2-2 2 1 3-2 2 1 3-2h2l1 1h2l1-1h10l1 1 5-1 4 2 2-1 3 2 2-1 2 2 1-1 1 1h2l2 2 1-1 2 2 1-1 6 3 2 2 4 1 1 2h2l1 2h2l3 4h2l3 3v1h1l5 5 1 3h1l2 2v2l2 1 1 4 2 1-1 1h1l2 3v2l2 3-1 1 2 2-1 1 2 2v3l1 1-1 2 1 4 1 1v14l-2 4 1 2-2 3 1 1-2 3 1 1-2 3v2l-2 4-2 1-1 4-2 2h-1v2l-2 1v1l-2 1v1l-4 4h-1v1l-2 1v1l-2 2h-2v1l-2 2-4 1-1 2-10 5h-2l-4 2-1-1-2 2-1-1-2 2-2-1-2 2-3-1-3 2-5-1-1 1h-4l-1 1h-10l-1-1h-3l-1-1h-3l-2 1-4-2-1 1-4-2-1 1-3-2-1 1-2-2-1 1-2-2-1 1-4-3-1 1-1-2-1 1-6-3-1-2h-2l-1-2h-2l-3-3h-1l-2-2v-1h-1l-1-2-7-6v-2h-1l-2-2v-2l-2-1-4-8 1-1-2-1-1-6-1-1 1-2-2-3 1-2v-3l-1-1v-11l1-1v-2l-1-1v-2l2-3-1-1v-1l2-2-1-1 2-2-1-1 2-2-1-1 5-10 2-1v-2l2-2v-1l2-2h1l1-3 7-7 3-1 2-3h2v-1l1-1h2l1-2 4-1 1-2 2-1 1 1 1-2 1 1Zm-54 40 1 1 2-1-1-1 3-4-1-1 3-6 2-1v-2l2-1-1-1 2-2h1v-2l2-2h1l2-4 6-6 4-2 2-3h2l2-3h2l1-2 4-1 1-2 10-5h2l1-1 1 1 2-2h2l4-2 1 1 3-2 2 1 3-2 2 1 4-2h2l1 1 1-1 1 1h15l2-1 4 2 2-1 4 2 2-1 2 2 2-1 2 2 1-1 2 2 1-1 4 3 1-1 4 3 8 3 1 2h2l1 2h2l1 2h2l3 3v1l3 1 8 8v1l3 3v1l2 1v2l2 1v2l2 1v2l3 3-1 1 2 1-1 1 2 1-1 1 3 5 1-3-2-3 1-1v-1l-2-2 1-1-2-2 1-2-3-4v-2l-7-13v-2l-2-1v-2l-2-1-1-3-2-1-1-3-2-1-7-7v-1l-2-1v-1h-2l-2-2v-1h-2l-1-2h-2l-1-2h-2l-1-2-1 1-1-2-1 1-1-2-1 1-4-2-2-2-1 1-8-4-1 1-2-2-2 1-3-2-1 1h-2l-4-2h-2l-1 1h-13l-1-1h-2l-4 2h-2l-1-1-3 2-2-1-3 2-1-1-2 2-1-1-2 2-1-1-2 2-1-1-4 3-8 3-1 2h-2l-1 2h-2l-1 2h-2l-2 3-4 2v1l-2 1-3 4h-1l-1 3-4 4v1l-2 1v2l-2 1-1 4-2 1-4 8 1 1-3 4v4l-1 1v2l-2 2 1 2-2 3v3Z"/></svg>