<svg xmlns="http://www.w3.org/2000/svg" width="512" height="512" viewBox="0 0 512 512">
<rect width="512" height="512" fill="#0B0F14"/>
<path d="M372,325L369,325L370,326L369,327L368,332L366,334L367,335L365,337L366,338L364,340L365,342L363,344L364,346L362,348L363,350L361,353L362,354L360,357L361,360L359,364L360,367L358,371L359,373L359,376L357,380L357,384L359,386L358,387L360,389L359,390L361,392L361,394L363,397L363,399L365,403L364,404L366,406L366,408L369,408L384,400L386,400L390,398L391,396L395,395L395,394L396,393L398,393L399,391L400,392L401,390L403,390L404,388L406,388L407,386L409,386L410,384L411,384L414,381L416,381L416,380L418,378L420,378L420,377L422,375L423,375L423,374L421,372L422,371L420,369L421,368L419,365L418,366L417,365L415,367L414,366L410,369L409,368L407,370L406,369L404,371L403,371L401,369L402,367L404,367L405,366L406,367L407,365L409,366L413,363L414,364L416,362L417,363L417,362L419,361L417,358L418,357L416,355L416,353L414,354L413,353L409,356L408,355L403,358L402,357L399,359L397,359L395,357L394,358L393,356L392,357L389,354L388,350L387,350L384,346L384,344L383,342L381,341L380,337L378,336L378,334L376,333L376,332L374,330L374,328L372,327ZM140,324L140,325L138,326L138,327L136,329L136,331L134,332L134,334L132,335L132,337L130,338L130,340L129,342L127,343L127,345L125,346L124,350L122,351L122,353L120,354L116,358L114,358L113,359L109,357L108,358L106,356L105,357L103,355L102,356L100,354L99,355L97,353L96,354L95,353L93,355L94,356L94,357L92,359L93,360L93,362L94,363L95,362L99,365L100,364L102,366L103,365L105,367L106,366L109,369L107,371L105,369L104,370L102,368L101,369L99,367L98,368L96,366L95,367L93,365L90,366L91,367L89,369L90,371L88,373L89,374L89,376L91,377L92,379L95,380L96,382L98,382L101,385L102,385L103,387L105,387L106,389L110,390L111,392L113,392L114,394L120,396L121,398L127,400L128,402L134,405L137,405L138,407L139,406L142,408L144,408L145,407L145,405L147,403L146,402L148,400L147,399L149,397L148,396L150,395L149,394L151,392L150,391L152,389L151,388L153,384L153,381L152,380L152,376L153,374L151,370L152,368L151,366L151,363L150,362L151,360L149,356L150,355L148,352L149,350L147,348L148,346L146,343L147,342L145,339L146,338L144,336L145,335L143,333L144,332L142,330L143,329L141,327L142,326ZM108,370L109,369L110,370L109,371ZM345,305L340,313L340,316L338,317L339,318L336,322L337,323L334,328L334,330L332,332L333,333L330,337L331,338L329,340L330,341L328,343L329,344L327,346L328,347L326,349L327,351L325,353L326,354L324,357L325,359L323,361L324,363L322,366L323,368L321,372L322,373L321,375L321,378L320,379L321,380L321,383L319,387L320,389L320,394L319,395L319,400L318,401L318,407L319,408L319,426L320,426L322,424L324,425L326,423L327,424L330,422L331,423L333,421L334,422L336,420L337,421L339,419L340,420L342,418L343,419L345,417L346,418L348,416L349,417L351,415L351,388L352,387L352,383L353,382L352,374L354,370L353,366L355,362L354,360L356,357L355,356L355,354L357,352L356,349L358,347L357,345L359,342L358,341L360,338L359,337L361,335L360,334L362,332L361,331L363,329L362,328L364,326L363,325L365,323L364,322L365,320L364,320L361,317L361,316L359,316L357,313L355,313L354,311L351,310L350,308L348,308ZM166,305L164,307L162,307L160,310L158,310L157,312L155,312L155,313L153,315L151,315L151,316L149,318L147,318L145,321L147,323L147,325L148,326L147,327L149,329L148,330L150,332L149,333L151,335L150,336L152,339L151,340L153,343L152,344L154,347L153,348L155,351L154,353L156,356L155,359L157,362L156,364L157,368L158,369L157,375L159,379L159,385L158,386L158,391L159,392L159,415L160,415L162,417L163,416L165,418L166,417L168,419L169,418L171,420L172,419L174,421L175,420L177,422L178,421L180,423L181,422L183,424L185,423L188,425L189,424L191,426L193,424L193,419L192,418L192,405L191,404L191,395L192,394L192,392L191,391L191,387L190,386L190,383L191,381L189,377L190,373L188,370L189,367L187,364L188,363L186,360L187,358L185,356L186,354L184,352L185,351L183,348L184,347L182,345L183,344L181,342L182,341L180,339L181,338L178,334L179,333L177,331L177,329L175,326L176,325L174,323L172,319L173,318L170,314L168,310L169,309L167,308ZM389,289L387,290L387,294L388,294L389,295L389,297L391,298L390,299L392,300L392,302L396,307L395,308L397,309L396,310L398,311L397,312L399,313L398,314L400,318L402,320L401,321L404,325L403,326L406,330L405,331L407,333L406,334L408,336L407,337L409,339L409,342L410,343L409,344L411,346L411,348L413,349L416,346L414,344L415,343L413,341L414,339L412,337L413,336L411,334L412,333L410,331L411,330L409,328L410,327L407,323L408,322L405,318L406,317L404,315L401,309L402,308L401,308L400,307L401,306L399,305L400,304L398,303L397,299L395,298L396,297L394,296L394,294L392,293L392,291L391,291ZM123,289L120,289L120,291L116,295L116,297L113,300L113,302L107,314L104,318L105,319L102,323L103,324L101,326L102,327L100,329L101,330L100,331L100,333L98,335L99,336L97,338L98,339L96,341L97,342L95,345L98,349L101,346L100,345L102,342L101,341L103,339L102,338L104,336L103,335L105,333L104,332L106,330L105,329L107,327L106,326L108,325L107,324L109,321L109,319L112,315L112,312L114,311L113,310L115,309L114,308L117,305L117,303L119,299L121,297L121,296L123,295L123,293L124,292L123,291ZM156,263L154,264L153,263L152,265L151,264L145,268L144,267L143,269L142,268L141,270L140,269L138,270L137,272L136,271L135,273L134,272L133,274L129,275L128,277L124,278L123,280L125,284L127,285L127,287L129,288L129,290L131,291L131,293L134,296L134,298L137,301L136,302L138,303L137,304L139,305L138,306L140,307L139,308L141,309L140,310L142,311L141,312L143,314L148,312L149,310L152,309L152,308L156,306L157,304L159,304L161,301L164,300L164,299L167,295L166,294L166,288L167,287L164,283L165,282L161,276L162,275L160,273L159,271L160,270L158,269L159,268L157,266ZM355,262L354,265L352,267L353,268L351,269L352,270L349,274L350,275L348,276L349,277L346,281L347,282L345,285L345,287L343,291L344,292L345,297L349,301L349,302L351,302L353,304L353,305L355,305L357,307L357,308L359,308L360,310L363,311L365,314L368,314L369,311L371,309L371,307L373,305L372,304L374,303L373,302L375,301L376,297L378,296L380,290L382,289L382,287L385,285L385,283L387,282L387,279L381,276L380,274L374,272L373,270L372,271L366,268L362,265L361,266ZM164,259L162,261L162,263L164,266L163,267L166,271L165,272L167,274L169,278L168,279L171,283L170,284L172,286L171,287L171,289L172,290L171,295L172,296L170,298L171,299L170,301L168,302L170,304L174,312L173,313L176,317L178,321L177,322L180,326L179,327L182,331L182,333L183,334L182,335L184,337L184,339L185,340L184,341L186,343L185,344L187,346L186,347L188,349L187,351L189,353L188,354L190,357L189,359L191,362L190,363L192,366L191,369L193,372L192,374L193,378L194,379L193,384L194,385L194,388L195,389L195,392L194,393L194,397L195,398L194,399L195,400L195,419L196,420L195,425L196,427L198,426L200,428L201,427L203,427L205,429L207,428L210,430L213,429L217,431L219,430L225,431L226,432L228,431L232,431L236,433L239,433L240,432L270,432L271,433L274,433L278,431L279,432L280,431L283,431L285,432L286,431L289,431L290,430L294,431L298,429L300,430L304,428L306,429L308,427L310,428L313,426L314,427L316,425L316,409L315,408L315,400L316,399L316,391L317,390L316,387L317,386L317,382L318,381L317,377L319,373L318,369L320,367L319,365L321,361L320,360L322,357L321,355L323,353L322,352L323,351L323,348L325,346L324,345L326,343L325,342L327,340L326,339L328,337L327,336L329,334L328,333L329,332L329,330L332,326L331,325L334,321L333,320L336,314L339,310L338,309L339,307L341,306L340,305L341,304L341,301L339,297L340,296L338,293L338,289L340,286L339,285L341,283L340,282L343,278L342,277L345,273L344,272L348,266L347,265L349,261L344,259L342,257L340,257L339,258L340,259L338,261L339,262L338,263L338,265L336,267L337,268L334,272L335,273L333,274L334,275L332,276L333,277L331,278L332,279L330,280L328,286L326,287L326,289L324,290L324,292L322,293L322,295L320,296L320,298L318,299L318,301L316,303L316,304L313,307L313,308L311,309L311,311L309,313L308,313L308,315L306,317L305,317L304,320L302,321L302,323L300,325L299,325L299,327L296,330L296,331L294,332L294,334L292,336L291,336L291,338L289,340L288,340L288,341L286,343L280,346L274,346L273,345L260,345L259,346L237,345L236,346L231,346L228,344L227,345L226,343L224,343L223,342L222,339L221,339L219,337L218,334L217,334L215,330L213,329L213,327L211,326L210,323L209,323L207,319L205,318L205,316L204,316L202,314L202,312L201,312L199,310L199,308L198,308L196,306L196,304L194,303L194,301L193,301L191,297L189,296L188,292L186,291L186,290L184,288L184,286L182,285L180,281L180,279L177,273L174,269L175,268L173,266L173,263L171,261L172,259L170,257L168,257ZM238,356L240,354L241,355L267,355L268,354L272,356L273,358L269,361L241,361L238,359L239,358ZM336,258L335,257L336,255L335,255L333,253L331,254L331,255L329,256L329,258L327,259L327,260L321,266L320,266L318,269L316,269L315,271L307,274L307,275L305,277L304,277L303,280L301,281L301,283L299,284L297,288L295,290L294,290L289,296L287,296L285,298L284,298L283,300L282,299L280,301L279,300L277,302L275,301L273,303L270,302L266,304L263,304L262,303L249,303L248,304L246,304L245,303L242,303L241,302L239,303L236,301L234,302L231,300L230,301L229,299L228,300L226,299L225,297L223,297L221,294L217,292L217,291L211,285L211,283L209,282L208,279L207,279L206,277L202,274L202,273L201,274L200,272L194,270L192,268L192,267L190,267L189,265L188,265L187,263L182,259L182,257L181,257L179,254L177,254L174,256L176,258L175,259L177,261L176,262L178,264L177,265L180,269L179,270L181,271L180,272L181,274L183,275L182,276L184,277L183,278L185,279L186,283L188,284L189,287L192,290L193,293L195,295L197,299L200,302L200,304L201,304L202,306L204,306L206,308L207,307L209,309L210,308L212,310L216,312L216,313L218,315L218,317L222,322L224,326L224,328L226,330L227,334L228,334L230,337L231,337L233,339L234,338L235,339L240,339L241,340L269,340L270,339L276,339L277,338L278,339L280,338L280,337L283,334L284,331L286,329L286,327L288,323L290,322L289,321L291,320L293,316L293,314L295,313L295,312L297,311L298,309L299,310L301,308L302,309L304,307L305,308L307,307L311,302L312,302L312,300L314,298L314,297L316,296L316,294L318,292L322,285L324,284L324,282L326,278L328,277L331,271L331,268L334,264L333,263L335,261L334,260ZM171,219L173,222L172,223L176,229L175,230L177,231L179,235L179,237L181,238L181,240L183,241L183,243L184,243L187,246L187,247L195,254L195,255L197,255L199,257L200,257L201,259L203,259L204,261L208,262L212,264L214,266L215,265L216,266L218,266L220,268L221,267L223,269L224,268L226,270L227,269L228,269L230,271L233,270L235,272L239,271L242,273L244,272L266,272L268,273L272,271L274,271L275,272L278,270L280,271L283,269L284,270L286,268L289,268L290,267L291,268L295,265L296,266L300,263L304,261L306,261L309,258L311,258L312,256L314,256L314,255L317,252L318,252L324,247L325,244L328,241L329,241L329,239L331,237L331,236L333,235L334,231L337,227L336,226L339,222L338,221L339,219L338,219L338,220L336,222L336,224L334,225L335,226L332,228L332,230L329,233L328,233L328,234L326,235L324,237L324,238L321,240L320,242L317,243L317,244L315,246L313,246L312,248L308,249L307,251L299,255L298,254L297,256L296,255L294,257L293,256L291,258L290,257L288,259L287,258L285,260L283,259L281,261L279,260L276,262L274,261L270,263L263,262L262,263L257,263L256,264L253,264L252,263L249,263L248,262L241,263L237,261L235,262L231,260L229,261L227,259L225,260L223,258L222,259L220,257L219,258L217,256L216,257L213,255L211,255L210,253L209,254L205,252L204,250L200,249L199,247L194,245L192,242L189,241L180,232L180,230L177,228L177,226L175,225L174,221L172,219ZM349,208L349,210L347,212L348,214L345,220L346,221L344,222L345,223L343,225L344,226L341,230L341,232L339,234L338,238L336,239L334,243L334,246L337,249L343,252L344,251L356,257L357,256L359,258L360,257L366,260L368,262L372,264L373,263L374,265L375,264L380,268L382,268L382,244L383,243L383,238L382,237L382,233L381,232L382,230L380,228L380,226L379,225L380,224L378,223L379,222L377,221L376,218L375,218L371,213L369,213L368,211L366,210L365,211L364,210L362,210L360,208L358,209L356,208ZM161,208L154,208L153,209L151,208L148,210L147,209L143,212L141,212L141,213L135,218L133,222L131,223L132,224L130,225L131,226L129,228L130,229L128,232L129,233L129,236L128,237L128,268L130,267L131,268L132,266L144,260L145,261L149,259L151,257L152,258L154,256L156,256L157,255L159,256L173,248L174,249L176,245L176,243L175,242L175,240L173,239L174,238L172,237L172,235L169,231L169,229L167,227L167,224L165,222L166,221L164,219L164,217L163,216L164,215L162,212L163,210ZM316,197L315,198L313,198L312,197L312,198L308,203L308,205L312,209L314,209L318,205L319,203L319,201ZM314,157L311,160L310,160L311,161L310,162L311,164L310,166L312,168L311,170L313,173L312,174L313,176L313,188L314,190L318,192L322,188L323,186L322,184L322,176L323,174L321,171L321,169L322,168L320,165L321,164L319,162L320,161L319,161L316,157L315,158ZM352,156L350,157L349,159L349,161L350,162L350,170L351,171L351,177L350,178L350,181L351,182L351,188L350,189L350,193L349,194L350,196L350,198L349,199L350,200L352,200L353,199L354,200L359,195L359,193L361,190L360,188L360,182L361,181L360,169L361,167L359,164L358,160L355,157L353,157ZM159,156L156,158L155,157L155,158L153,159L152,161L151,161L152,162L150,164L151,168L149,172L149,185L151,189L150,193L152,195L152,196L156,199L156,200L157,199L162,199L161,198L161,195L160,194L161,192L161,190L160,189L160,170L161,169L160,161L161,160L161,157ZM237,124L236,124L234,122L232,122L230,124L229,123L227,125L226,124L222,127L218,129L216,129L215,131L213,131L212,133L210,133L209,135L201,143L199,144L199,146L197,148L197,149L195,151L191,158L192,159L190,162L190,165L188,167L189,168L187,172L188,173L188,180L190,182L194,183L198,180L198,178L200,175L199,172L201,170L200,168L204,162L203,161L204,159L206,158L207,154L211,150L211,149L220,141L222,141L223,139L225,139L226,137L227,138L228,136L229,137L233,134L234,135L236,134L236,133L238,131L238,126ZM240,102L237,104L235,103L232,105L231,104L228,106L227,105L225,107L224,106L220,109L219,108L215,111L207,114L206,116L204,116L203,118L201,118L201,119L197,121L197,122L194,125L190,127L187,130L185,134L183,136L182,136L182,138L180,139L180,141L178,142L177,146L175,147L173,151L174,152L171,156L172,157L170,159L170,161L169,162L170,163L168,165L169,166L167,169L168,170L168,172L166,175L166,179L167,180L167,186L166,187L166,191L168,194L167,197L169,199L168,201L170,203L169,204L171,206L170,207L172,209L174,213L173,214L176,217L177,221L179,222L179,224L180,224L182,226L184,230L191,237L194,238L196,240L196,241L198,241L199,243L201,243L202,245L208,247L209,249L210,248L216,252L217,251L218,253L219,252L221,254L222,253L224,255L225,254L228,256L229,255L232,257L234,256L237,258L241,257L244,259L246,258L264,258L266,259L270,257L272,257L273,258L276,256L278,257L281,255L282,256L285,254L286,255L288,253L289,254L291,252L292,253L293,251L294,252L298,249L299,250L299,249L302,247L303,248L304,246L314,241L315,239L317,239L317,238L327,228L328,228L329,225L331,223L332,223L332,221L334,220L335,216L337,215L336,214L338,210L340,208L339,207L341,205L340,204L342,202L341,201L343,198L342,196L344,193L343,191L344,189L344,178L343,177L344,172L342,170L343,167L341,165L342,163L340,161L341,160L339,158L340,157L337,153L333,145L333,143L331,142L331,140L329,139L329,137L325,134L325,132L318,125L315,124L312,121L312,120L310,120L309,118L304,116L303,114L299,113L298,111L297,112L296,110L295,111L290,108L288,108L286,106L285,107L283,105L282,106L279,104L278,105L276,103L274,104L271,102L269,103L261,102L260,101L251,101L250,102L246,102L245,103L242,103ZM219,115L220,116L224,113L225,114L227,112L228,113L230,111L232,112L234,110L236,111L239,109L241,110L244,108L246,108L247,109L249,109L250,108L260,108L261,109L266,108L270,110L272,109L275,111L277,110L279,112L280,111L281,112L283,112L285,114L286,113L288,115L289,114L295,117L297,119L301,120L302,122L304,122L305,124L307,124L310,128L312,128L315,131L315,132L316,132L321,137L322,140L323,140L325,142L325,144L327,145L328,149L330,150L329,151L330,151L332,154L332,156L334,159L333,160L335,162L334,163L336,165L336,168L337,169L336,171L337,175L338,176L338,190L336,194L337,196L335,199L336,200L334,203L335,204L333,207L333,209L331,213L329,214L328,218L326,220L325,220L325,222L323,223L323,224L321,225L321,226L317,230L316,230L316,231L314,232L314,233L312,235L310,235L310,236L308,238L304,239L303,241L293,246L291,246L287,248L286,247L284,249L283,248L281,250L279,249L277,251L274,250L271,252L266,251L265,252L261,252L260,253L250,253L249,252L246,252L245,251L242,251L240,252L236,250L235,251L231,249L230,250L227,248L226,249L224,247L223,248L221,246L220,247L216,244L215,245L214,243L213,244L207,241L206,239L204,239L203,237L201,237L198,234L197,234L195,232L195,231L194,231L193,229L186,223L186,221L185,221L183,219L183,217L181,216L177,208L178,207L176,206L175,200L174,199L175,197L173,194L174,192L174,189L173,188L173,177L174,176L174,174L173,173L173,171L175,168L174,167L174,166L176,164L175,163L177,161L176,160L178,158L177,157L182,147L184,146L184,144L186,142L186,141L188,139L189,139L190,136L197,129L200,128L202,125L204,125L204,124L205,123L207,123L208,121L212,120L213,118L215,117L216,118L217,116L218,117ZM165,155L166,156L168,155L167,154L170,150L169,149L172,143L174,142L174,140L176,139L175,138L177,136L178,136L178,134L180,132L181,132L183,128L189,122L193,120L195,117L197,117L199,114L201,114L202,112L206,111L207,109L217,104L219,104L220,103L221,104L223,102L225,102L229,100L230,101L233,99L235,100L238,98L240,99L244,97L246,97L247,98L248,97L249,98L264,98L266,97L270,99L272,98L276,100L278,99L280,101L282,100L284,102L285,101L287,103L288,102L292,105L293,104L297,107L305,110L306,112L308,112L309,114L311,114L312,116L314,116L317,119L317,120L320,121L328,129L328,130L331,133L331,134L333,135L333,137L335,138L335,140L337,141L337,143L340,146L339,147L341,148L340,149L342,150L341,151L344,156L345,153L343,150L344,149L344,148L342,146L343,145L341,143L342,141L339,137L339,135L332,122L332,120L330,119L330,117L328,116L327,113L325,112L324,109L322,108L315,101L315,100L313,99L313,98L311,98L309,96L309,95L307,95L306,93L304,93L303,91L301,91L300,89L299,90L298,88L297,89L296,87L295,88L291,86L289,84L288,85L280,81L279,82L277,80L275,81L272,79L271,80L269,80L265,78L263,78L262,79L249,79L248,78L246,78L242,80L240,80L239,79L236,81L234,80L231,82L230,81L228,83L227,82L225,84L224,83L222,85L221,84L217,87L209,90L208,92L206,92L205,94L203,94L202,96L200,96L198,99L194,101L194,102L192,103L189,107L188,107L187,110L183,114L183,115L181,116L181,118L179,119L178,123L176,124L172,132L173,133L170,137L170,141L169,142L169,144L167,146L168,148L166,151L166,154Z" fill="#CBD5E1" fill-rule="evenodd"/>
</svg>