<?xml version="1.0" encoding="UTF-8"?>
<svg xmlns="http://www.w3.org/2000/svg" width="943" height="266" viewBox="0 0 943 266">
<path d="M 13.555 0 L 50.43 0 L 50.43 86.445 C 50.43 98.516 49.805 118.906 49.336 138.203 C 55.547 117.812 61.641 97.656 65.43 86.445 L 96.562 0 L 127.07 0 L 157.852 86.445 C 161.758 98.008 168.086 119.492 174.336 140.742 C 173.828 120.742 173.086 99.141 173.086 86.445 L 173.086 0 L 209.844 0 L 209.844 181.875 L 155.039 181.875 L 125.352 97.188 C 122.07 86.445 116.328 67.266 111.953 51.641 C 107.539 67.266 101.797 86.445 98.398 97.188 L 68.359 181.875 L 13.555 181.875 L 13.555 0 Z M 281.479 -2.695 C 300.034 -2.695 313.12 5.625 321.792 20.273 L 321.792 0 L 357.065 0 L 357.065 128.906 L 321.167 128.906 L 321.167 57.266 C 321.167 37.227 310.776 28.32 295.894 28.32 C 280.894 28.32 272.222 37.461 272.222 54.805 L 272.222 128.906 L 236.206 128.906 L 236.206 48.203 C 236.206 15.625 254.019 -2.695 281.479 -2.695 Z M 436.162 -3.164 C 469.834 -3.164 493.271 13.672 493.271 39.414 C 493.271 58.359 481.318 69.57 455.342 74.727 L 430.928 79.453 C 421.006 81.562 415.303 85.82 415.303 92.422 C 415.303 100.117 422.725 106.094 435.068 106.094 C 447.764 106.094 456.553 98.398 456.787 88.008 L 490.107 88.008 C 489.365 114.883 467.412 131.602 434.092 131.602 C 400.498 131.602 379.404 115.469 379.404 91.055 C 379.404 71.055 392.686 58.359 417.725 53.477 L 440.303 49.062 C 450.811 46.992 457.021 42.969 457.021 36.133 C 457.021 28.203 448.857 22.578 435.537 22.578 C 421.514 22.578 413.193 29.297 411.865 40.547 L 376.475 40.547 C 378.662 12.812 402.725 -3.164 436.162 -3.164 Z M 548.589 71.641 C 548.589 91.68 558.979 100.586 573.862 100.586 C 588.862 100.586 597.534 91.445 597.534 74.102 L 597.534 0 L 633.433 0 L 633.433 80.703 C 633.433 113.281 615.737 131.602 588.276 131.602 C 570.073 131.602 557.261 123.672 548.589 109.492 L 548.589 181.875 L 512.573 181.875 L 512.573 0 L 548.589 0 L 548.589 71.641 Z M 717.764 -2.93 C 749.014 -2.93 773.936 14.883 778.701 40.547 L 745.85 40.547 C 742.568 30.508 732.92 24.062 718.857 24.062 C 699.951 24.062 688.975 36.367 688.35 55.43 L 780.029 55.43 L 780.029 65.078 C 780.029 104.375 754.521 131.836 716.553 131.836 C 679.561 131.836 653.311 103.633 653.311 64.336 C 653.311 25.156 678.701 -2.93 717.764 -2.93 Z M 688.584 78.359 C 690.537 94.492 701.162 104.492 717.295 104.492 C 733.506 104.492 744.248 94.492 746.084 78.359 L 688.584 78.359 Z M 799.316 0 L 835.332 0 L 835.332 69.844 C 835.332 89.219 846.191 99.492 860.957 99.492 C 867.051 99.492 873.77 98.984 876.465 98.867 L 876.465 129.531 C 873.535 129.648 869.98 129.766 865.84 129.766 C 848.887 129.766 839.121 122.422 834.355 106.953 L 834.004 106.953 L 834.004 128.906 L 799.316 128.906 L 799.316 0 Z" fill="#0b0f14" transform="translate(26.490 222.355) scale(1 -1)"/>
</svg>
