<?xml version="1.0" encoding="UTF-8"?>
<svg xmlns="http://www.w3.org/2000/svg" width="1024" height="1024" viewBox="0 0 1024 1024">
<path d="M 564 492 L 563 492 L 560 499 L 560 502 L 550 533 L 549 542 L 546 551 L 543 567 L 540 601 L 539 602 L 539 610 L 556 659 L 568 654 L 606 634 L 648 607 L 666 593 L 661 574 L 658 574 L 639 582 L 626 585 L 624 583 L 624 579 L 627 576 L 658 565 L 654 550 L 651 550 L 624 560 L 614 560 L 607 557 L 598 547 L 594 539 Z M 103 492 L 94 504 L 66 550 L 59 557 L 52 560 L 43 560 L 15 550 L 12 550 L 8 565 L 17 569 L 37 575 L 42 578 L 43 582 L 40 585 L 37 585 L 5 574 L 0 593 L 21 609 L 50 628 L 80 645 L 110 659 L 127 611 L 127 599 L 126 598 L 126 590 L 124 582 L 125 580 L 124 579 L 123 566 L 113 521 Z M 513 454 L 511 455 L 489 505 L 479 534 L 479 537 L 477 540 L 470 568 L 470 572 L 467 582 L 466 595 L 465 596 L 466 598 L 465 599 L 463 625 L 462 626 L 460 692 L 492 684 L 495 682 L 501 681 L 504 679 L 525 672 L 525 634 L 524 633 L 525 632 L 525 608 L 526 607 L 526 594 L 527 593 L 528 577 L 531 564 L 530 563 L 536 533 L 539 525 L 539 521 L 549 490 L 552 484 L 547 479 Z M 153 454 L 145 461 L 135 467 L 114 483 L 116 486 L 126 517 L 129 532 L 131 536 L 135 556 L 134 557 L 137 569 L 139 593 L 140 594 L 140 605 L 141 606 L 141 625 L 142 626 L 142 672 L 181 686 L 205 692 L 206 691 L 205 642 L 204 641 L 204 624 L 203 623 L 203 612 L 202 611 L 199 580 L 190 543 L 181 515 L 162 469 L 155 455 Z M 601 421 L 598 424 L 597 428 L 612 451 L 625 478 L 636 506 L 636 509 L 642 525 L 645 538 L 651 537 L 652 534 L 647 520 L 647 517 L 640 496 L 629 469 L 617 445 L 608 430 Z M 66 421 L 63 423 L 49 445 L 33 478 L 16 527 L 16 530 L 14 534 L 15 537 L 21 538 L 33 498 L 36 493 L 42 476 L 57 446 L 69 428 L 69 425 Z M 134 370 L 126 372 L 104 383 L 102 383 L 85 392 L 70 402 L 70 404 L 78 414 L 93 438 L 109 471 L 147 443 L 151 439 L 154 433 L 154 428 L 155 427 L 154 416 Z M 532 369 L 512 416 L 512 423 L 511 424 L 512 432 L 517 441 L 557 471 L 576 433 L 588 414 L 594 407 L 596 402 L 574 388 Z M 148 364 L 146 366 L 150 373 L 167 415 L 167 422 L 168 423 L 167 433 L 165 440 L 161 447 L 172 469 L 188 508 L 198 538 L 207 576 L 210 601 L 211 602 L 210 605 L 211 606 L 212 626 L 213 627 L 214 694 L 254 702 L 294 705 L 295 706 L 311 706 L 312 707 L 352 707 L 353 706 L 371 706 L 372 705 L 383 705 L 384 704 L 397 704 L 398 703 L 425 700 L 452 694 L 453 630 L 454 629 L 457 590 L 458 589 L 461 568 L 468 539 L 479 506 L 489 481 L 505 447 L 499 433 L 499 417 L 503 404 L 520 365 L 503 357 L 500 370 L 495 383 L 476 419 L 451 456 L 396 529 L 387 534 L 373 534 L 372 535 L 295 535 L 294 534 L 280 534 L 272 530 L 265 523 L 247 499 L 237 484 L 214 454 L 186 412 L 172 385 L 163 358 L 162 357 L 160 359 Z M 298 555 L 303 550 L 363 550 L 368 555 L 368 561 L 364 565 L 361 566 L 305 566 L 302 565 L 299 562 Z M 173 353 L 179 373 L 189 395 L 200 414 L 224 449 L 229 454 L 247 460 L 253 464 L 261 476 L 282 515 L 290 519 L 302 519 L 303 520 L 362 520 L 363 519 L 376 519 L 383 516 L 387 511 L 400 485 L 412 465 L 419 460 L 437 454 L 442 450 L 475 399 L 484 381 L 493 356 L 493 353 L 486 350 L 481 359 L 466 375 L 457 382 L 435 394 L 412 424 L 395 439 L 385 444 L 367 449 L 349 450 L 348 451 L 319 451 L 318 450 L 301 449 L 287 446 L 270 438 L 256 426 L 230 393 L 211 383 L 200 375 L 188 363 L 180 350 Z M 500 281 L 490 298 L 481 309 L 465 325 L 443 341 L 418 354 L 395 362 L 379 366 L 361 368 L 360 369 L 348 369 L 347 370 L 319 370 L 318 369 L 307 369 L 306 368 L 287 366 L 267 361 L 241 351 L 219 339 L 203 327 L 182 306 L 171 291 L 167 282 L 171 294 L 181 314 L 193 331 L 211 349 L 237 366 L 250 372 L 270 379 L 282 382 L 287 382 L 292 384 L 315 386 L 316 387 L 350 387 L 351 386 L 368 385 L 392 380 L 420 370 L 445 356 L 458 346 L 471 333 L 479 323 L 488 309 Z M 521 259 L 518 274 L 511 294 L 502 313 L 493 327 L 494 337 L 525 352 L 533 353 L 553 361 L 586 378 L 587 377 L 586 313 L 585 312 L 584 301 L 579 288 L 571 277 L 557 266 L 539 260 Z M 144 259 L 128 260 L 114 264 L 99 273 L 88 286 L 83 297 L 80 310 L 79 378 L 111 362 L 125 356 L 141 352 L 156 344 L 169 339 L 173 336 L 173 327 L 164 313 L 155 294 Z M 455 239 L 449 238 L 444 241 L 441 248 L 441 253 L 444 257 L 452 258 L 457 253 L 458 243 Z M 449 159 L 444 164 L 444 170 L 449 189 L 450 219 L 453 223 L 458 224 L 463 222 L 466 216 L 466 190 L 464 183 L 465 182 L 462 170 L 458 161 L 456 159 Z M 523 156 L 522 157 L 523 158 L 523 171 L 524 172 L 525 206 L 524 207 L 524 226 L 523 227 L 522 241 L 528 241 L 536 237 L 541 229 L 542 214 L 543 213 L 543 186 L 542 185 L 541 170 L 538 163 L 531 158 Z M 143 156 L 135 158 L 127 164 L 125 170 L 124 186 L 123 187 L 123 213 L 124 214 L 125 229 L 127 234 L 131 238 L 138 241 L 144 241 L 143 228 L 142 227 L 142 171 L 143 170 L 143 159 L 144 158 Z M 294 90 L 285 89 L 259 100 L 240 113 L 225 128 L 214 144 L 202 171 L 198 192 L 198 198 L 201 205 L 205 207 L 212 207 L 217 203 L 219 199 L 220 188 L 225 172 L 231 159 L 244 141 L 256 129 L 270 119 L 279 114 L 295 108 L 298 103 L 299 98 L 297 93 Z M 295 50 L 279 54 L 273 57 L 262 60 L 233 75 L 221 83 L 208 94 L 187 117 L 172 142 L 166 156 L 159 180 L 158 191 L 157 192 L 157 202 L 156 203 L 156 215 L 157 216 L 157 226 L 161 245 L 172 273 L 187 296 L 213 321 L 233 334 L 249 342 L 280 353 L 285 353 L 302 357 L 319 358 L 320 359 L 347 359 L 348 358 L 364 357 L 389 352 L 414 343 L 436 332 L 447 325 L 460 315 L 475 300 L 489 281 L 502 254 L 509 224 L 509 193 L 503 165 L 491 137 L 480 119 L 472 109 L 454 91 L 444 83 L 424 70 L 398 58 L 365 49 L 345 48 L 344 47 L 323 47 L 322 48 L 310 48 L 309 49 Z M 268 69 L 287 63 L 291 63 L 306 59 L 314 59 L 315 58 L 351 58 L 386 65 L 409 74 L 433 88 L 454 105 L 466 118 L 475 130 L 486 149 L 496 178 L 498 188 L 498 197 L 499 198 L 499 218 L 498 219 L 497 233 L 490 258 L 488 260 L 488 262 L 481 275 L 470 290 L 451 309 L 441 317 L 423 328 L 410 334 L 380 344 L 374 344 L 361 347 L 352 347 L 351 348 L 305 347 L 275 341 L 253 333 L 235 324 L 213 308 L 197 292 L 190 283 L 183 272 L 174 253 L 170 239 L 168 221 L 167 220 L 168 188 L 169 187 L 170 176 L 175 160 L 181 146 L 183 144 L 183 142 L 193 126 L 200 117 L 219 98 L 245 80 Z M 155 152 L 156 153 L 158 145 L 160 143 L 160 141 L 167 127 L 185 102 L 210 78 L 235 61 L 255 51 L 284 41 L 294 40 L 306 37 L 313 37 L 314 36 L 352 36 L 353 37 L 367 38 L 372 40 L 385 42 L 411 51 L 434 63 L 454 77 L 486 109 L 502 133 L 510 150 L 510 153 L 511 153 L 503 121 L 491 94 L 471 64 L 453 45 L 426 25 L 399 12 L 369 3 L 362 3 L 353 1 L 336 1 L 335 0 L 298 3 L 275 9 L 262 14 L 242 24 L 216 42 L 193 66 L 177 90 L 163 120 Z" fill="#cbd5e1" fill-rule="evenodd" transform="translate(154.006 132.000) scale(1.073446)"/>
</svg>
