<?xml version="1.0" encoding="UTF-8"?>
<svg xmlns="http://www.w3.org/2000/svg" width="1064" height="260" viewBox="0 0 1063.664 260.000">
  <path d="M 20.000 237.494 L 66.572 237.494 L 66.572 84.586 L 67.139 84.586 L 118.298 237.494 L 155.225 237.494 L 206.619 84.870 L 207.234 84.870 L 207.234 237.494 L 254.515 237.494 L 254.515 20.000 L 189.220 20.000 L 137.494 170.118 L 136.879 170.118 L 84.586 20.000 L 20.000 20.000 L 20.000 237.494 Z M 384.687 169.078 C 384.687 191.253 371.826 202.317 354.096 202.317 C 335.751 202.317 324.403 190.969 324.403 170.544 L 324.403 81.466 L 279.013 81.466 L 279.013 178.534 C 279.013 216.501 303.552 239.858 337.122 239.858 C 361.188 239.858 378.493 227.423 385.585 208.983 L 386.152 208.983 L 386.152 237.494 L 430.171 237.494 L 430.171 81.466 L 384.687 81.466 L 384.687 169.078 Z M 587.553 131.395 C 586.655 98.771 560.083 79.243 519.279 79.243 C 478.948 79.243 452.801 97.589 452.801 127.849 C 452.801 151.489 467.884 167.470 499.184 173.522 L 525.946 178.676 C 537.766 181.040 545.567 184.870 545.567 193.144 C 545.567 202.317 535.969 207.518 521.927 207.518 C 505.993 207.518 495.638 200.993 494.031 187.849 L 449.255 187.849 C 451.761 220.662 478.948 240.000 521.785 240.000 C 561.832 240.000 591.241 220.662 591.241 188.889 C 591.241 164.775 574.078 152.388 545.142 146.478 L 515.875 140.709 C 503.156 138.061 497.435 133.050 497.435 125.957 C 497.435 117.210 507.175 111.584 520.177 111.584 C 534.362 111.584 545.142 119.291 545.426 131.395 L 587.553 131.395 Z M 654.645 145.863 C 654.787 123.735 668.073 112.482 685.662 112.482 C 704.102 112.482 715.355 123.877 715.213 144.255 L 715.213 237.494 L 760.414 237.494 L 760.414 136.265 C 760.556 98.298 736.206 74.941 702.778 74.941 C 678.570 74.941 661.738 87.376 654.456 105.863 L 653.463 105.863 L 653.463 20.000 L 609.397 20.000 L 609.397 237.494 L 654.645 237.494 L 654.645 145.863 Z M 856.312 239.858 C 895.461 240.000 922.790 219.480 928.416 188.274 L 887.612 188.274 C 883.783 199.953 871.537 207.187 856.738 207.329 C 835.461 207.187 822.790 191.395 822.931 171.158 L 822.931 169.976 L 929.740 169.976 L 929.740 159.480 C 929.740 110.875 900.946 79.243 855.272 79.102 C 809.031 79.243 779.196 111.773 779.196 159.622 C 779.196 208.700 808.889 240.000 856.312 239.858 Z M 822.931 142.931 C 823.783 125.626 836.785 111.773 855.887 111.584 C 873.901 111.773 887.943 124.444 888.511 142.931 L 822.931 142.931 Z M 948.345 237.494 L 993.593 237.494 L 993.593 152.104 C 993.593 130.355 1007.305 118.251 1024.610 118.392 C 1031.087 118.251 1039.362 119.433 1043.664 120.898 L 1043.664 80.709 C 1040.118 79.858 1035.390 79.102 1030.520 79.102 C 1012.317 79.102 999.314 89.598 993.262 109.693 L 992.080 109.693 L 992.080 81.466 L 948.345 81.466 L 948.345 237.494 Z" fill="#0B0F14" fill-rule="nonzero"/>
</svg>
