<svg xmlns="http://www.w3.org/2000/svg" width="2048" height="2048" viewBox="0 0 2048 2048"><path fill="#0b0f14" d="M0 0h2048v2048H0z"/><path fill="#cbd5e1" fill-rule="evenodd" d="M1411 1644c-2.337 16.456-17.248 30.127-35 28 14.991 31.19 38.339 58.917 56 89-9.044 24.951 9.424 57.94 38 45 20.228-19.264-4.83-44.41-11-64-17.018-32.203-31.227-65.666-48-98m7-28c-17.821 5.21-4.52 40.342-2 12.148-1.261-4.848 3.192-7.329 2-12.148m53-39c-17.735 1.12-17.49 15.137-15 31 5.804 24.382 1.08 49.105-10 69-6.733 24.038 35.393 39.215 37 12 6.11-35.402 10.95-71.33 14-108-8.894-.77-16.498-4.707-26-4m-317-86c2.703 21.524-30.072 26.993-38 25 10.428 40.36 50.695 69.853 44 116-1.477 27.213 50.164 29.92 44 0-8.414-31.543-23.296-60.406-34-91-7.7-15.772-13.353-32.097-16-50m8-13c-16.555 11.216-6.854 8.243 0 0m217-30c-41.792 9.651-40.441 63.104-34 97.853 5.576 33.534.017 71.68 13 102.147 16.349 21.646 44.73 1.95 40-22 17.745-8.575 26.2-24.088 22-45.41-2.256-27.552 7.677-50.054 11-75.295.587-27.471-21.411-60.308-52-57.295m-159-8c-1.01 24.509 21.714 42.397 31 64 13.245 17.885 25.9 36.014 22 61 6.52 30.435 60.306 17.856 41-12-11.844-23.5-22.581-48.772-40-69-20.58-8.952-46.152-20.679-54-44m-279-45c-3.816 23.794-40.179 9.457-35 27 12.308 27.757 32.379 54.146 34 85-10.606 23.616 25.885 46.646 39 24 1.351-30.455-15.518-56.461-22-85-6.285-16.568-13.19-33.003-16-51m895-1c-10.917 13.974-35.462 10.161-45 12 19.417 31.346 49.723 58.182 68 90-1.471 23.402 13.758 52.402 42 43 24.326-16.153.821-44.377-9-62-20.495-26.471-33.944-59.148-56-83m-318-8c-21.127-.312 8.126 7.966 14 13 22.819 17.446 28.799 45.925 25 74 21.617-30.1 7.884-87.02-35-86-1.345-3.318-2.988 1.897-4-1m41 75c4.193-3.25.608 5.436 0 0m-339-79c.758 17.714-27.842 36.665-1 48 3.794-5.86-.56-33.841 1-48m252-1c-31.262 6.575-63.385 21.357-84 46-4.02 14.703 22.941 4.832 29.431 18.431 32.797 22.023 31.057 65.626 20.569 98.421-7.338 22.896 15.464 27.878 30.853 21.148 30.883 9.84 59.529-11.537 73.147-37 1.552-35.303 14.46-79.471-7.431-109.431-18.622-16.173-41.57-25.06-62.569-37.569m44 74c12.697 8.961 5.318 44.2 6 63-8.576 9.49-23.557 28.537-37 21 5.29-23.456-11.119-57.696 9-74 7.379-3.07 13.842-8.825 22-10m-460-99c-27.518-3.331-33.857 6.772-28 35.263 5.349 24.655.158 50.403-7 70.737 1.461 23.073 39.616 25.783 39 0 3.654-34.51 1.221-71.542 5-106h-4.852zm323-28c17.856 15.578 38.435 32.752 56 49 20.736-4.135 4.375-21.53-8-24-15.5-9.577-32.383-15.825-48-25m-216-6c-38.696 13.765-34.348 59.87-49 90-3.41 26.228-21.28 49.792-16 77 10.6 18.978 37.764 19.193 46-1 36.267-24.147 39.522-67.992 61-101 14.396-29.524-6.507-69.252-42-65m129-18c-25.131 12.428-56.865 32.749-58 63-2.015 35.488-7.347 83.476 32 97 19.951 14.06 41.75 23.663 62 37 .173-28.343 16.844-54.628 42-66 .86-17.054 27.02-28.35 20-44-9.52-11.247-18.862-8.363-27 2-15.503 15.133-22.283 44.09-40 54-22.614-13.328-47.463-24.536-67-43-7.632-36.223 34.082-60.006 57-79-6.72-7.567-15.43-12.826-21-21m284-8c9.436 24.323 24.362 46.371 31 71.853-4.018 17.286 1.478 47.94 25 38.147 7.785-24.368 8.697-50.545-5-72-6.577-21.296-37.458-19.821-51-38m-149-20c-25.755 6.837-10.607 36.104-10 55 9.72 6.676 20.01 11.975 30 18-4.812-23.793-27.162-27.028-18-35 16.327-2.113 25.503 21.3 41 26 17.245 15.843 11.181 6.011 8-10-5.794-15.233 1.186-40.055-20-43-10.19-4.016-18.66-12.235-31-11m279-2c-27.629 3.015-47.441 29.192-46 57-5.679 38.41-17.348 74.337-20 114 1.994 23.984 41.03 30.452 43 4 6.653-8.314 18.958-16.603 14-1 4.436 17.364-17.427 39.78-37 30 16.878 31.27 38.183 60.705 55 92-6.19 26.058 15.302 56.678 42 44 20.193-17.644-5.506-41.696-11-61-16.001-29.114-28.497-59.68-44-89-2.479-16.36-.43-27.424 10-38 10.463-26.027 12.353-55.605 34-77 15.189-28.664-6.04-73.696-40-75m-7 164c4.37-4.711 5.587 4.535 0 0m-975-166c-3.117 15.653-27.953 16.733-37 7 3.504 29.234 15.088 61.815 13 92-11.481 15.806-13.335 49.193 15 47 26.232-11.28 12.517-49.674 15-73.558-3.899-22.446 3.792-54.587-6-72.442m839-18c-2.49 28.944 32.746 36.122 52 49 10.55 6.617 21.993 11.075 32 19 .545-15.842 12.73-32.891 14-44-33.336-6.243-63.834-19.774-98-24m-337-8c-26.53 17.162-57.77 26.127-81 49-5.735 11.182-8.253 30.504 7 17 28.219-13.981 69.082 11.146 68 40 8.164-27.424 37.226-42.742 58-59-17.067-16.308-34.323-32.163-52-47m62-2c7.862 10.17 29.42 24.719 34 30-9.027-13.055-22.649-20.299-34-30m-340-4c-29.149 12.098-30.731 48.735-44 73-3.085 26.158-33.307 56.612-10 80 20.883 20.172 44.76-7.652 58-23 14.65-26.007 28.394-52.39 44-78 5.787-29.58-17.399-56.288-48-52m528-8c5.764 37.098 8.738 75.351 18 111 13.015 27.37 58.49 9.03 51-21-1.454-25.148 6.949-51.497 0-75-23.455-3.714-44.841-13.05-69-15m-37-11c12.164 16.037-.39 49.805 24 52 15.215 7.925-8.904-48.615 0-34 5.902-20.644-13.724-11.293-24-18m-632 0c1.04 3.317 1.845-1.374 0 0m-5 0c9.746 27.129 23.306 52.678 35 79-4.26 19.582-3.413 52.757 26 43 20.95-12.548 2.646-40.807-2-59-3.674-18.65-18.145-27.73-35-34-9.29-9.704-17.818-18.21-24-29m1043-4c-22.455 3.835 17.694 6.72 20 25 10.757 13.86 8.374 37.85 10 52 21.51-26.612 5.98-73.403-30-77m-56-11c-24.877.07-39.908 20.214-61 30-11.974 5.235-31.59 25.962-8 27 44.254 8.95 61.38 76.953 28 106-5.552 13.676 21.05 32.173 36 24 45.642 7.624 87.026-30.646 80-78 1.013-27.746 6.515-69.372-27-82-15.275-8.18-31.03-20.754-48-27m48 72c18.084 5.274 9.955 82.669 7 65-8.042 12.207-25.513 23.304-38 23-.614-25.936-3.123-47.14 0-69 8.794-10.03 19.401-15.783 31-19m-513-72c-1.874 13.244-14.926 21.056-29 19-1.236 15.004 23.32 13.203 27 29 13.868 14.848 17.623 43.81 41 44-14.34-28.64-22.413-59.876-38-88 1.748-2.195-1.833-2.183-1-4m-50-28c-1.287 17.907 14.2 49.28 32 29 3.27-9.876 33.098-15.837 14-17-15.183-4.294-30.112-9.418-46-12m-202-9c-3.76 4.924 48.482 21.15 29.725 24.725 15.95 14.23 17.896 41.88 14.275 57.275 22.147-24.777 7.93-76.868-29-79-4.41-2.136-9.878-2.667-15-3m-269 0c4.454 18.466-22.785 27.58-4 40 13.868 25.269 6.802-46.26 5-36.852V1169Zm224-1c-26.222 8.004-55.443 24.754-68 52-1.622 12.907 22.568 7.838 30 18 25.758 20.768 26.27 62.5 4 85-2.348 26.011 34.087 19.707 48 20 32.039 1.814 64.756-30.492 62-64 4.37-34.126 5.205-79.263-32-94-14.145-7.454-27.118-17.5-44-17m48 67c20.869 1.335 12.19 72.115 10 55.705-.878 16.519-20.987 26.125-35 29.295-6.477-21.255-1.776-47.014-2-69 8.858-6.836 16.643-12.602 27-16m145-72c6.36 4.294 9.516 3.51 0 0m281-5c-14.92-.093-40.032 27.848-16 32 20.35 3.12 44.178 14.555 61 15 .538-27.106-12.798-53.135-45-47m-52 0c-10.358 5.682-43.594-1.014-27 16 11.006-.012 30.338 10.006 36 6-1.68-7.456-1.94-17.795-9-22m191-31c-27.507 11.809-60.408 25.493-75 55-3.168 15.052-6.906 35.542 15 33 11.67-6.122 11.926-27.313 25.431-36.431 15.236-19.977 41.866-35.974 62.569-16.569 12.995 10.685 38.199 17.754 40 36-11.27 13.94-23.796 27.157-36 40 14.43 6.033 30.406 12.234 40.294-7.294 16.46-13.9 40.034-24.447 54.706-34.706-35.967-25.79-72.841-44.952-111-65-5.029-2.15-9.84-4.43-16-4m-572-7c6.03 12.5 7.595 33.645 19.853 39 12.072-2.706 35.104 13.337 24.147-6-8.014-18.763-26.738-27.46-44-33m-310-8c-31.011 14.683-36.907 51.72-53 78-8.139 22.022-24.958 42.109-23 67 9.754 20.779 36.169 15.298 48-1 28.542-23.33 39.837-58.175 62-86 13.51-25.828.067-62.71-34-58m130-18c-34.164 12.93-73.124 40.06-69 82.705-4.395 27.712 4.14 61.63 34 70.295 17.241 10.02 35.194 23.229 52 31 5-20.457 16.756-41.022 37-51 4.993-27.98 36.234-51.233 55-62-19.5-30.814-45.704-57.62-80-68-8.463-3.883-18.97-2.895-29-3m8 20c22.044 1.092 39.904 20.889 60 30 23.43 12.345.508 17.741-8.431 30.431-19.649 15.036-24.29 44.446-46.569 55.569-19.49-13.799-50-21.64-62-44.852 1.784-30.352 31.44-58.13 57-71.148m715-33c-14.903 1.655-19.404 4.457-4 10 13.522 6.13 25.005 17.183 37 27-1.973-17.733-13.367-36.144-33-37m-55-3c-25.622 13.026-49.276 30.806-74 46-6.96 6.625-8.288 34.174-7 34 22.147-25.674 72.896-16.86 80 19 2.143-27.637 36.71-39.474 57-53 10.849-10.437 37.628 1.692-2-18-16.487-10.42-33.94-27.837-54-28m-367-5c7.838 15.809 12.177 36.994 27 47 12.836 2.745 36.056 8.55 32 6-11.545-17.304-16.158-48.844-42-47-5.183-3.062-11.83-2.942-17-6m141-23c-29.12 7.253-33.411 39.282-39 64-8.035 14.137-4.613 31.4 15 29 15.142 3.658 30.1 7.758 45 12-1.129-30.157 36.337-50.857 18-83-4.71-14.257-24.086-23.61-39-22m-514-9c-24.865 18.555-59.583 27.18-76 55-3.528 11.322-6.64 21.346 5 10 27.69-17.599 65.264 6.79 66 38 7.42-33.663 45.136-52.656 74-63-15.086-18.857-40.765-29.11-61-40h-4.853zm238-1c-4.802 26.576 44.364 44.308 51 13-17.473-3.155-34.374-7.756-51-13m-194-6c-10.783 0-20.468 5.75-6 9 22.034 8.445 40.053 24.286 56 41 1.272-26.665-26.858-48.905-50-50m69-50c1.022 7.268 22.843 10 31 18 27.79 15.095 64.562 14.879 95 26 77.107 18.741 154.339 37.182 231 57 7.9-24.112-24.775-16.137-38-24-87.578-22.352-176.106-42.41-264-64-18.034-4.849-35.423-11.937-55-13m521-1c-9.69 6.113 15.306 8.67 19 15 21.828 13.557 18 47.263 21 62 19.027-26.757 8.334-80.628-32-77h-4.852zm-41-5c-27.896 8.433-63.045 27.852-72 59 34.155 1.663 58.724 38.294 47 72 3.721 13.792-24.37 22.126-9 31 11.833 17.663 38.748 11.41 56 9 24.803-10.608 54.186-31.926 48-64.558 1.006-29.573 6.475-65.291-23-79.442-14.35-12.05-30.225-20.802-47-27m40 70c21.864-5.788 2.349 95.37 9 55-7.501 9.95-23.677 29.773-36 21 1.624-28.165-9.982-70.991 27-76m-263-71c6.438 19.25-26 24.035-18 39 15.797 9.823 24.026 20.847 19-7-2.385-9.566-.29-21.706-1-32m-335-21c-1.476 7.456-22.467 11.555-5 17 28.33 13.806 52.77 33.374 68 62 33.939 39.393 66.491 84.88 96 124 23.31 1.24 7.32-11.358-1-22-28.84-41.09-61.385-80.645-92-121 12.523-1.517 27.223 14.579 41 19 49.93 30.64 100.153 60.574 151 89 74.43 64.054 149.807 134.097 223 199 26.112 23.263 50.447 47.28 77 67 23.32-8.449-38.605-46.138-24-37-71.8-67.061-145.732-130.31-219-199-11.559-5.616-19.293-20.132-24-25 79.549 20.951 159.389 41.2 239 62 76.374 19.902 152.528 40.335 229 60 25.463 3.724 49.77 19.703 76 15 9.562-11.392-17.901-11.259-25-16-72.687-21.227-147.47-37.394-220-59-80.203-19.04-159.247-40.876-239-61-42.188-12.133-86.589-18.922-123-45-55.901-28.336-107.484-64.32-164-92-19.352-13.63-47.457-28.159-64-37m292-32c-33.802 10.098-45.632 49.125-65 75-2.053 11.182 22.807 8.968 32 15 15.335 4.944 35.885 12.755 43-9 18.61-15.407 34.814-41.083 20-64-5.666-9.945-18.111-17.408-30-17m136-21c-26.06 12.85-58.348 24.357-74 51-6.086 23.905-11.326 59.726 2 82 28.756 9 60.946 15.11 90 20 11.832-11.527 24.413-14.938 27-31 17.146-28.104 44.56-47.543 75-57-37.723-20.052-77.282-45.294-117-65zm-2 25c21.28 2.693 40.056 20.322 59 32 8.1 15.633-18.344 27.06-22 42-10.847 12.572-18.872 34.772-32 41-20.964-12.764-44.368-24.42-62-43 .787-30.968 29.378-61.129 57-72m-82-72c-24.133 17.292-53.324 28.428-73 52-4.696 14.532-6.757 21.281 7 9 26.529-16.15 62.704 10.328 64 40 5.666-34.801 44.616-49.334 72-62-18.888-16.653-39.46-33.492-63.852-39h-4.853zm35-7c-16.777 3.687 12.267 11.684 19 17 14.195 7.32 23.795 24.37 38 28 1.56-30.801-27.464-48.856-57-45M195 709c-5.255 26.805-19.075 53.847-17 81 21.76 25.623 52.818 49.28 88 46 18.8-15.32-11.173-37.738-19-54-4.095-17.184 17.859-33.706 13-48-22.618 4.172-49.174-6.347-65-25m100-1c-8.803 8.343-26.407 31.115-6 35 9.84 4.543 31.269 25.755 25-.558-.207-15.413.058-31.737-19-34.442m-27-53c-24.296-3.945-24.341 25.957-27 41 11.628 16.159 45.046 11.03 46-12 5.13-19.621 5.348-32.837-19-29m118-91c-9.13 9.324-32.846 9.545-25 30 3.827 16.809 16.6 20.365 30 10 16.21-12.882-5.154-24.877-5-40m-15 46c3.314-4.164 4.014 4.138 0 0m-98-77c-2.179 30.747 42.986 10.085 40.705 18 26.663-1.327-22.108-12.542-13.705-11-9.217-1.749-17.77-5.317-27-7m-82-14c-11.232 40.117-7.052 85.342 9 122 5.675 16.898 7.79 34.578-2 50 5.884 22.278 34.54 27.783 54 33 20.732.37 30.833-17.004 2.295-10-25.866-.045-27.378-31.91-16.295-48 .951-25.5 32.665-22.593 51-20-2.768-22.976-9.125-46.604-10-69 11.917-1.313 7.197 27.068 18 14 9.485 8.078-7.475 14.98 8 26 17.094 26.124 7.997-38.035 7-25 .218-12.16 19.69-37.81-5.558-31-30.175 3.188-51.73-9.496-78.442-14-1.718 32.028 12.683 62.959 6 93-7.48 6.82-24.974 29.844-27 9-10.423-39.022-18.326-81.812-10-124-4.344.007-1.554-6.794-6-6m174-16c-13.368 3.587-36.278 20.747-25 35 18.82.48 20.873 30.14 41 19 16.84-7.74 29.948-24.974 12-40-5.214-12.787-15.755-12.088-28-14m-162-22c-18.02 25.63 11.799 49.216 34 55 10.43 7.991 38.102 6.972 22-8-21.83-8.973-52.918-18.12-56-47m105-5c-14.322 9.36-29.7 29.09-22 45 11.664 4.447 32.347 13.186 40 10-9.198-16.888 19.406-29.752 19-37-12.878-4.824-24.522-15.258-37-18m171-11c-28.673 7.213-52.921 25.11-78 41 12.068 7.942 9.392 21.666 21 10 19.625-8.312 37.546-25.326 59-26 14.947 12.085 21 38.462 20 59-29.802 32.11-70.67 45.977-106 69-12.69 6.214-28.495 20.102-36-1-7.798-14.698-16.146-32.754-4-48 2.76-16.142-18.653-22.738-23-5-13.584 45.606-.851 98.874-5 149.64-.162 50.856 2.819 102.014 0 153.36-19.221-2.81-35.388-25.779-55-18-26.181 15.82-49.638-10.05-72-19-20.053-10.857-41.971-27.033-37-54-18.631-1.107-37.48-29.36-53-6-12.162 13.319-3.794 31.265 13 33 73.804 38.198 146.638 78.735 220 118 83.065 44.842 165.48 91.256 249 135 32.33 19.85 77.388 38.333 117 21 22.326-9.471 33.49-34.335 50-49 36.926-3.275 76.975-12.392 110-25 1.316-.931-19.605-8.502-23-16-18.922-7.333-36.032 14.826-57 12-6.877.76-57.996 5.437-37 0 37.655-13.395 70.25-39.004 106-57 17.898-10.667 40.294-35.902 60-16 2.414 14.819-20.825 26.525-26 35 11.126 15.618 33.382 16.293 42-3 19.164-17.773 17.284-55.138-12-61-27.379-11.418-56.307-19.097-81-37-73.793-45.94-142.655-103.662-205-170-42.34-44.123-86.413-92.001-112-145-.463-34.507-8.476-70.93-45-80m132 517c29.542 2.781 51.836 23.064 78 34 21.069 12.058-6.736 18.911-17 22-27.91.837-71.499-8.904-66-43-.546-5.13 1.155-9.7 5-13m-124-63c27.994 2.633 49.117 21.856 74 32 17.783 6.693 22.934 36.292 13 48-29-7.366-53.637-25.266-80-39-10.082-8.817-17.457-29.517-7-41m-125-69c25.247 1.36 45.986 21.971 69 32 19.6 5.972 33.908 32.057 22 50-21.717 3.303-40.366-15.896-60-24-21.857-11.26-41.992-29.644-31-58m2-152c4.193-3.25.608 5.436 0 0m0-3c2.555-3.587 2.555 3.587 0 0m-18-55c14.117 4.897 18.539 27.453 31 38 46.344 71.893 112.097 136.774 175.294 197.294C593.578 915.038 639.42 941.806 684 976c18.5 10.861 39.632 25.765 59 27-49.85 4.082-87.826-28.09-127-53-11.164-13.076-26.175-22.58-39-34 1.277 11.987 10.025 27.618-8 19-14.276-12.037-8.416-37.055-28-46-28.39-24.707-59.837-57.36-84-81 4.195 19.926 2.816 44.724 5 64-18.738 6.466-24.586-20.715-22-36 .46-26.26 4.834-54.225-18-70-19.727-23.853-41.74-54.546-59-75 3.364 43.448-.375 88.426 4 132-22.92 5.828-20.996-59.65-19-45-.76-46.672-1.505-91.959-2-138M221 464c-4.558 14.043 12.512 33.89 14 38 20.51 14.002-19.813-73.456-6-30-1.335-4.99-1.874-7.79-8-8m12 37c4.193-3.25.608 5.436 0 0m102-97c-1.9 22.16-9.78 44.216-14 64 14.055 5.59 26.022 16.223 40 22 13.487-19.502 22.282-44.668 28-65-15.717.972-46.32 16.568-47-9-2.983-3.365-2.701-10.139-7-12m252-10c-20.715-3.591 2.57 28.282 15 18 10.316.241-17.945-10.551-15-18m-17 0c-15.239 15.411-40.892 23.81-50 44 2.982 19.215 26.106-.55 34-7 13.652-12.792 26.19-17.954 16-37m56-15c-4.104 16.58-20.445 12.26-31 5-3.085 21.724 33.013 23.083 33 1 2.694-1.249.571-7.22-2-6m-198-3c-15.986 2.13-9.32 24.26-20 34-14.941 26.54-25.918 58.623-38 84 22.344-17.012 24.63-46.65 41-68 10.291-14.502 14.85-34.533 17-50m131-18c-18.833-1.094-44.695-.199-37 26.558-5.89 21.508 16.771 31.991 26.863 10.58C568.23 392.102 552.77 369.421 565 364c-6.081 3.883 4.971-12.653-6-6m30-8c-10.835 3.872-25.06 18.981-18 30 13.058-3.388 22.264-19.22 34-3 12.18 11.663 19.47-9.741 6-16-6.857-4.707-13.278-10.85-22-11m-319-8c-26.715 6.007-38.595 36.331-41 61-3.938 15.262-14.458 37.37-4 51 10.364 7.38 15.568 22.93 25 33-9.418 16.255 25.409 20.341 20 27 2.334-18.194 16.9-43.946 34-44-15.237-7.088-27.113-11.76-43-14 15.514-3.943 30.802-9.333 32-28 17.443-26.156 18.005-70.85-16-85-3.55 2.602-3.45-3.602-7-1m-24 24c13.236 3.03 28.604 8.976 42 15-2.799 12.636-8.355 24.13-13 36-16.047-2.61-35.098-12.195-48-8 11.413-12.296 6.566-32.161 19-43m212-31c5.142 23.402-25.926 34.223-20 58-8.853 12.29 16.345 8.97 23 15 17.717 3.678 37.958 6.092 57 3-8.854-15.18-8.622-35.819-2-52-16.487-3.54-31.806 9.127-34-7-7.686-5.337-20.183-7.087-24-17m-173-8c-16.542 3.378-10.026 4.98 2 10 38.674 26.18 29.126 80.638 10 113 4.825 21.806 23.16 7.217 21-8 13.305-33.819 12.067-74.654-15-102-3.99-5.82-11.19-11.69-18-13m13-9c-6.187 8.749 24.004 41.239 22 30 10.544 14.617 9.545 38.9 29 46-.8 20.726 10.132 30.074 31.558 24 21.978 3.689 22.808-27.05 34.442-41 .685-6.501-21.941 18.014-19 13-27.428 10.036-48.397-10.967-58-34-9.142-15.584-22.443-32.15-40-38m50-22c6.96 40.087 55.705 71.969 95 54 13.445-14.878-11.53.982-20 0-35.054 1.99-59.264-27.157-75-54m514-18c-61.068 3.431-115.683 22.441-168 47-21.604 11.086-44.205 19.699-64 36 14.112 18.645 32.835-6.812 49-10 71.927-38.946 152.852-59.827 242-54 64.415 6.727 121.252 31.75 172.431 70.431 60.53 43.397 109.095 107.042 156 164C1309.894 604.96 1378.116 675.77 1460 719c59.217 29.742 121.913 51.086 191 57 12.553 1.924 41.877-1.825 58-1-64.288-10.752-130.732-16.3-188-44-72.944-27.154-139.434-76.384-195-139-48.345-44.008-84.427-97.556-125.431-146.431-40.44-46.021-84.555-90.706-137.569-119.569-58.641-35.902-126.096-51.42-201-48m-531-6c-6.037 10.274-3.142 30.704 12 23 2.88-9.099 1.993-22.742-12-23m-40 0c-29.233 17.43-71.486 15.05-91 47-18.472 52.138-35.826 104.739-54 157-1.695 19.505 18.662 37.642 36 37 3.696-32.392 17.697-60.516 26-91 11.54-36.988 20.167-84.996 61-101 8.07-9.534 34.728-6.464 30-22-8.539-5.27-1.604-21.584-8-27m-70 38c9.476 1.651 38.315 20.289 29 15-9.494 12.424-24.25-8.367-29-15m210-52c-1.031 9.466 9.824 39.432 17 19 1.678-11.551-4.395-20.81-17-19m19-12c13.993 27.992 7.425 65.61-7 91 20.4-18.571 25.57-56.463 15-83-3.825-3.013-4.087-5.811-8-8m-30-14c-24.792 8.583-51.316 16.58-68 39-.077 19.544 31.96-11.476 21-12 25.137-13.157 58.683-26.65 87-13 .038-17.817-27.802-13.149-40-14m-42-42c-14.883 2.94-33.762 9.81-42 21 10.885-7.875 37.566 8.155 32 19-14.051-21.566-45.587-17.454-54 5-22.68 46.457 12.689 96.798 53 119 19.046 13.976 55.526 20.39 71 4-38.428 19.579-75.658-15.96-95-45-14.321-9.64-32.866-24.154-19-43 7.417-12.652 26.325 2.673 32-14 26.985-18.164 60.074-38.13 94-27 8.294 3.249-26.831-27.214-20-24-15.025-10.072-33.156-14.203-52-15"/></svg>