<?xml version="1.0" encoding="UTF-8" standalone="no"?>
<svg
   width="900"
   height="220"
   viewBox="0 0 900 220"
   version="1.1"
   id="svg2"
   xmlns="http://www.w3.org/2000/svg"
   xmlns:svg="http://www.w3.org/2000/svg">
  <defs
     id="defs2" />
  <g
     id="text2"
     style="font-size:160px;font-family:'Inter Display';text-anchor:middle;fill:#0b0f14"
     aria-label="Musher Hub">
    <path
       style="font-weight:700"
       d="m 9.0625,158.39999 h 23.59375 v -55.3125 c 0,-7.734371 -0.390625,-20.781246 -0.703125,-33.124996 3.984375,13.046875 7.890625,25.9375 10.3125,33.124996 l 19.921875,55.3125 h 19.53125 l 19.6875,-55.3125 c 2.5,-7.421871 6.5625,-21.171871 10.54688,-34.765621 -0.3125,12.8125 -0.78125,26.640625 -0.78125,34.765621 v 55.3125 H 134.6875 V 41.993744 H 99.609375 L 80.625,96.212494 c -2.109375,6.874996 -5.78125,19.140626 -8.59375,29.140626 -2.8125,-10 -6.484375,-22.26563 -8.671875,-29.140626 L 44.140625,41.993744 H 9.0625 Z m 171.48437,1.71875 c 11.875,0 20.23438,-5.3125 25.78125,-14.6875 v 12.96875 h 22.57813 V 75.899994 H 205.9375 v 45.859376 c 0,12.8125 -6.64063,18.51562 -16.17188,18.51562 -9.60937,0 -15.15625,-5.85937 -15.15625,-16.95312 V 75.899994 H 151.5625 v 51.640626 c 0,20.85937 11.40625,32.57812 28.98437,32.57812 z m 98.98438,0.3125 c 21.5625,0 36.5625,-10.78125 36.5625,-27.26562 0,-12.10938 -7.65625,-19.29688 -24.29688,-22.57813 l -15.625,-3.04687 c -6.32812,-1.32813 -10,-4.0625 -10,-8.281251 0,-4.921875 4.76563,-8.75 12.65625,-8.75 8.125,0 13.75,4.921875 13.90625,11.562501 h 21.32813 c -0.46875,-17.187501 -14.53125,-27.890626 -35.85938,-27.890626 -21.48437,0 -35,10.3125 -35,25.937496 0,12.8125 8.51563,20.9375 24.53125,24.0625 l 14.45313,2.8125 c 6.71875,1.32813 10.70312,3.90625 10.70312,8.28125 0,5.07813 -5.23437,8.67188 -13.75,8.67188 -8.98437,0 -14.29687,-4.29688 -15.15625,-11.48438 h -22.65625 c 1.40625,17.73438 16.79688,27.96875 38.20313,27.96875 z m 71.95312,-47.89062 c 0,-12.812501 6.64063,-18.515626 16.17188,-18.515626 9.60937,0 15.15625,5.859375 15.15625,16.953126 v 47.42187 h 22.96875 v -51.64062 c 0,-20.859376 -11.32813,-32.578126 -28.90625,-32.578126 -11.64063,0 -19.84375,5.078125 -25.39063,14.140625 V 41.993744 H 328.4375 V 158.39999 h 23.04687 z m 108.28125,47.73437 c 20,0 35.9375,-11.40625 38.98438,-27.8125 h -21.01563 c -2.10937,6.40625 -8.28125,10.54688 -17.26562,10.54688 -12.10938,0 -19.14063,-7.89063 -19.53125,-20.07813 h 58.67187 v -6.17187 c 0,-25.156251 -16.32812,-42.734376 -40.625,-42.734376 -23.67187,0 -40.46875,18.046875 -40.46875,43.203126 0,25.07812 16.25,43.04687 41.25,43.04687 z m -18.67187,-52.03125 c 1.25,-10.312496 8.04687,-16.718746 18.35937,-16.718746 10.39063,0 17.26563,6.40625 18.4375,16.718746 z m 70.85937,50.15625 H 535 v -44.6875 c 0,-12.42187 6.95312,-18.984371 16.40625,-18.984371 3.90625,0 8.20312,0.3125 9.92187,0.390625 V 75.509369 c -1.875,-0.07813 -4.14062,-0.15625 -6.79687,-0.15625 -10.85938,0 -17.10938,4.6875 -20.15625,14.609375 h -0.23438 v -14.0625 h -22.1875 z"
       id="path2" />
    <path
       style="font-weight:600"
       d="M 609.375,158.39999 H 630 v -50.46875 h 53.67187 v 50.46875 H 704.375 V 41.993744 H 683.67187 V 90.040619 H 630 V 41.993744 h -20.625 z m 142.8125,1.64063 c 11.40625,0 19.76562,-5 25.39062,-14.29688 v 12.65625 h 19.375 V 75.899994 H 777.1875 v 46.640626 c 0,14.0625 -7.65625,20.23437 -18.04688,20.23437 -10.54687,0 -16.64062,-6.32812 -16.64062,-18.4375 V 75.899994 h -19.6875 v 51.562496 c 0,21.17188 12.10937,32.57813 29.375,32.57813 z m 106.79687,0 c 21.5625,0 35.70313,-17.26563 35.70313,-42.96875 0,-25.390626 -14.375,-42.812501 -35.625,-42.812501 -10.70313,0 -19.45313,4.296875 -24.76563,13.359375 h -0.15625 v -45.625 h -19.6875 V 158.39999 h 19.375 v -12.57812 h 0.15625 c 5.15625,9.53125 14.21875,14.21875 25,14.21875 z M 854.375,143.55624 c -12.89063,0 -21.32813,-10.39062 -21.32813,-26.48437 0,-16.01563 8.4375,-26.484376 21.32813,-26.484376 12.1875,0 20.39062,9.453126 20.39062,26.484376 0,17.10937 -8.20312,26.48437 -20.39062,26.48437 z"
       id="path3" />
  </g>
</svg>
