<svg xmlns="http://www.w3.org/2000/svg" width="512" height="512" viewBox="0 0 512 512"><path fill="#cbd5e1" d="m85.462 332.256 46.08-9.794-32.158-151.29.561-.12 82.774 140.532 36.537-7.766L238.01 142l.607-.13 32.099 151.01 46.78-9.944-45.74-215.192-64.604 13.732-19.608 159.408-.608.13-83.311-137.533-63.902 13.583z" opacity=".08"/><path fill="#cbd5e1" d="m251.813 247.964 44.804 14.558 47.795-147.1.546.177 1.419 163.09 35.525 11.543 97.15-130.762.59.192-47.707 146.827 45.485 14.78 67.984-209.233-62.815-20.41-96.684 128.248-.592-.193L381.93 58.92l-62.133-20.188zM122.7 517.733l46.394 8.18 26.858-152.32.565.1 24.103 161.305 36.786 6.487 78.005-143.01.612.107-26.809 152.038 47.1 8.305 38.202-216.658-65.043-11.469-77.895 140.456-.613-.108-25.724-158.727-64.338-11.344z" opacity=".08"/><path fill="#cbd5e1" d="m384.775 563.933 44.268-16.112-52.9-145.343.54-.196 101.526 127.644 35.1-12.776-3.95-162.853.583-.212 52.803 145.072 44.941-16.357-75.244-206.733-62.064 22.59 2.768 160.586-.584.212-101.641-124.599-61.39 22.344z" opacity=".08"/><circle cx="114" cy="25" r="2" fill="#cbd5e1" opacity=".069"/><circle cx="228" cy="142" r="2" fill="#cbd5e1" opacity=".057"/><circle cx="89" cy="432" r="1" fill="#cbd5e1" opacity=".052"/><circle cx="223" cy="238" r="2" fill="#cbd5e1" opacity=".092"/><circle cx="203" cy="429" r="1" fill="#cbd5e1" opacity=".081"/><circle cx="284" cy="6" r="1" fill="#cbd5e1" opacity=".099"/><circle cx="348" cy="284" r="1" fill="#cbd5e1" opacity=".065"/><circle cx="344" cy="104" r="1" fill="#cbd5e1" opacity=".077"/><circle cx="367" cy="352" r="2" fill="#cbd5e1" opacity=".069"/><circle cx="44" cy="470" r="2" fill="#cbd5e1" opacity=".059"/><circle cx="387" cy="80" r="2" fill="#cbd5e1" opacity=".071"/><circle cx="370" cy="196" r="2" fill="#cbd5e1" opacity=".055"/><circle cx="233" cy="296" r="1" fill="#cbd5e1" opacity=".11"/><circle cx="103" cy="389" r="1" fill="#cbd5e1" opacity=".082"/><circle cx="373" cy="166" r="1" fill="#cbd5e1" opacity=".075"/><circle cx="273" cy="73" r="2" fill="#cbd5e1" opacity=".094"/><circle cx="250" cy="167" r="1" fill="#cbd5e1" opacity=".077"/><circle cx="224" cy="332" r="1" fill="#cbd5e1" opacity=".066"/><circle cx="32" cy="323" r="1" fill="#cbd5e1" opacity=".069"/><circle cx="216" cy="322" r="1" fill="#cbd5e1" opacity=".096"/></svg>