<?xml version="1.0" encoding="UTF-8"?>
<svg xmlns="http://www.w3.org/2000/svg" width="512" height="512" viewBox="0 0 512 512">
  <path d="M 0.000 220.000 L 47.109 220.000 L 47.109 65.330 L 47.683 65.330 L 99.430 220.000 L 136.783 220.000 L 188.770 65.617 L 189.391 65.617 L 189.391 220.000 L 237.217 220.000 L 237.217 0.000 L 171.170 0.000 L 118.848 151.848 L 118.226 151.848 L 65.330 0.000 L 0.000 0.000 L 0.000 220.000 Z" fill="#CBD5E1" opacity="0.08" transform="translate(60.000,90.000) rotate(-12.000,118.609,110.000)"/>
  <path d="M 0.000 220.000 L 47.109 220.000 L 47.109 65.330 L 47.683 65.330 L 99.430 220.000 L 136.783 220.000 L 188.770 65.617 L 189.391 65.617 L 189.391 220.000 L 237.217 220.000 L 237.217 0.000 L 171.170 0.000 L 118.848 151.848 L 118.226 151.848 L 65.330 0.000 L 0.000 0.000 L 0.000 220.000 Z" fill="#CBD5E1" opacity="0.08" transform="translate(280.000,70.000) rotate(18.000,118.609,110.000)"/>
  <path d="M 0.000 220.000 L 47.109 220.000 L 47.109 65.330 L 47.683 65.330 L 99.430 220.000 L 136.783 220.000 L 188.770 65.617 L 189.391 65.617 L 189.391 220.000 L 237.217 220.000 L 237.217 0.000 L 171.170 0.000 L 118.848 151.848 L 118.226 151.848 L 65.330 0.000 L 0.000 0.000 L 0.000 220.000 Z" fill="#CBD5E1" opacity="0.08" transform="translate(140.000,320.000) rotate(10.000,118.609,110.000)"/>
  <path d="M 0.000 220.000 L 47.109 220.000 L 47.109 65.330 L 47.683 65.330 L 99.430 220.000 L 136.783 220.000 L 188.770 65.617 L 189.391 65.617 L 189.391 220.000 L 237.217 220.000 L 237.217 0.000 L 171.170 0.000 L 118.848 151.848 L 118.226 151.848 L 65.330 0.000 L 0.000 0.000 L 0.000 220.000 Z" fill="#CBD5E1" opacity="0.08" transform="translate(340.000,310.000) rotate(-20.000,118.609,110.000)"/>
  <circle cx="114" cy="25" r="2" fill="#CBD5E1" opacity="0.069"/>
  <circle cx="228" cy="142" r="2" fill="#CBD5E1" opacity="0.057"/>
  <circle cx="89" cy="432" r="1" fill="#CBD5E1" opacity="0.052"/>
  <circle cx="223" cy="238" r="2" fill="#CBD5E1" opacity="0.092"/>
  <circle cx="203" cy="429" r="1" fill="#CBD5E1" opacity="0.081"/>
  <circle cx="284" cy="6" r="1" fill="#CBD5E1" opacity="0.099"/>
  <circle cx="348" cy="284" r="1" fill="#CBD5E1" opacity="0.065"/>
  <circle cx="344" cy="104" r="1" fill="#CBD5E1" opacity="0.077"/>
  <circle cx="367" cy="352" r="2" fill="#CBD5E1" opacity="0.069"/>
  <circle cx="44" cy="470" r="2" fill="#CBD5E1" opacity="0.059"/>
  <circle cx="387" cy="80" r="2" fill="#CBD5E1" opacity="0.071"/>
  <circle cx="370" cy="196" r="2" fill="#CBD5E1" opacity="0.055"/>
  <circle cx="233" cy="296" r="1" fill="#CBD5E1" opacity="0.110"/>
  <circle cx="103" cy="389" r="1" fill="#CBD5E1" opacity="0.082"/>
  <circle cx="373" cy="166" r="1" fill="#CBD5E1" opacity="0.075"/>
  <circle cx="273" cy="73" r="2" fill="#CBD5E1" opacity="0.094"/>
  <circle cx="250" cy="167" r="1" fill="#CBD5E1" opacity="0.077"/>
  <circle cx="224" cy="332" r="1" fill="#CBD5E1" opacity="0.066"/>
  <circle cx="32" cy="323" r="1" fill="#CBD5E1" opacity="0.069"/>
  <circle cx="216" cy="322" r="1" fill="#CBD5E1" opacity="0.096"/>
</svg>
