<svg xmlns="http://www.w3.org/2000/svg" width="1400" height="512" viewBox="0 0 1400 512">

<g transform="translate(64.00,91.00) scale(0.230447)">
  <path d="M 1137 1288 L 1107 1305 L 1105 1305 L 1070 1323 L 1070 1431 L 1084 1423 L 1086 1423 L 1088 1421 L 1092 1420 L 1096 1417 L 1129 1401 L 1136 1394 L 1137 1391 L 1137 1334 L 1138 1333 L 1137 1332 L 1138 1331 L 1137 1330 L 1138 1326 L 1137 1325 L 1138 1321 L 1137 1320 L 1138 1317 L 1137 1313 L 1138 1311 L 1137 1309 L 1138 1307 L 1138 1300 L 1137 1299 L 1138 1297 L 1138 1289 Z M 353 1288 L 353 1391 L 356 1397 L 405 1422 L 407 1424 L 419 1430 L 421 1430 L 420 1429 L 421 1428 L 421 1393 L 420 1392 L 421 1391 L 421 1387 L 420 1386 L 421 1385 L 420 1383 L 421 1382 L 420 1380 L 421 1379 L 420 1377 L 421 1375 L 420 1374 L 421 1373 L 420 1372 L 421 1371 L 420 1370 L 421 1368 L 420 1367 L 421 1365 L 420 1363 L 421 1362 L 421 1357 L 420 1356 L 421 1355 L 421 1323 Z M 891 1228 L 891 1335 L 1048 1430 L 1048 1322 Z M 600 1227 L 443 1322 L 443 1429 L 600 1336 Z M 623 1223 L 624 1333 L 726 1339 L 810 1338 L 868 1334 L 868 1223 L 786 1228 L 724 1228 Z M 1140 1154 L 1134 1154 L 1124 1157 L 1119 1157 L 1098 1162 L 1093 1162 L 1074 1167 L 1073 1178 L 1072 1179 L 1072 1188 L 1071 1189 L 1071 1205 L 1070 1206 L 1070 1299 L 1087 1289 L 1091 1288 L 1093 1286 L 1133 1266 L 1137 1261 L 1137 1186 L 1138 1185 Z M 349 1153 L 350 1154 L 352 1184 L 353 1185 L 353 1260 L 354 1263 L 363 1269 L 365 1269 L 367 1271 L 400 1287 L 402 1289 L 406 1290 L 420 1299 L 421 1298 L 421 1214 L 420 1213 L 420 1191 L 419 1190 L 419 1180 L 418 1179 L 417 1167 L 397 1163 L 393 1161 Z M 1467 1125 L 1465 1125 L 1440 1140 L 1429 1145 L 1401 1161 L 1401 1268 L 1406 1264 L 1432 1251 L 1434 1249 L 1436 1249 L 1441 1245 L 1456 1238 L 1467 1231 Z M 23 1124 L 23 1225 L 24 1226 L 23 1228 L 24 1231 L 48 1245 L 54 1247 L 61 1252 L 81 1262 L 88 1267 L 90 1267 L 90 1161 Z M 1293 1113 L 1293 1212 L 1297 1217 L 1320 1230 L 1331 1238 L 1365 1257 L 1376 1265 L 1378 1265 L 1378 1189 L 1377 1188 L 1378 1187 L 1377 1186 L 1378 1185 L 1377 1180 L 1378 1179 L 1377 1174 L 1378 1170 L 1377 1169 L 1377 1161 L 1370 1156 L 1361 1152 L 1321 1128 L 1307 1121 L 1302 1117 Z M 198 1113 L 113 1161 L 113 1266 L 121 1260 L 141 1249 L 144 1246 L 146 1246 L 160 1238 L 177 1226 L 179 1226 L 191 1219 L 197 1214 L 198 1212 Z M 896 1072 L 892 1104 L 891 1201 L 898 1207 L 1048 1297 L 1048 1197 L 1052 1163 Z M 595 1072 L 585 1076 L 472 1145 L 439 1163 L 442 1185 L 444 1233 L 443 1297 L 596 1205 L 600 1201 L 600 1116 Z M 873 1067 L 823 1071 L 822 1070 L 803 1072 L 779 1072 L 769 1075 L 765 1085 L 765 1187 L 766 1196 L 772 1204 L 776 1206 L 796 1206 L 846 1203 L 868 1200 L 868 1116 L 871 1082 L 874 1069 Z M 617 1066 L 623 1119 L 623 1199 L 632 1201 L 633 1200 L 688 1205 L 733 1206 L 738 1204 L 742 1200 L 744 1192 L 744 1084 L 741 1076 L 733 1072 L 682 1071 Z M 202 991 L 201 992 L 197 990 L 190 991 L 119 1032 L 116 1040 L 114 1062 L 113 1063 L 113 1137 L 198 1087 L 198 1024 L 199 1023 L 199 1013 L 200 1012 Z M 1289 991 L 1291 1012 L 1293 1020 L 1293 1044 L 1294 1045 L 1293 1046 L 1294 1048 L 1293 1049 L 1294 1051 L 1293 1052 L 1294 1057 L 1293 1058 L 1294 1064 L 1293 1065 L 1294 1068 L 1293 1069 L 1293 1079 L 1294 1080 L 1293 1086 L 1306 1095 L 1350 1119 L 1378 1136 L 1377 1135 L 1378 1074 L 1377 1073 L 1376 1051 L 1372 1033 L 1367 1029 L 1329 1008 L 1312 997 L 1300 992 L 1296 989 L 1294 989 L 1293 991 Z M 1459 979 L 1455 981 L 1432 1001 L 1401 1024 L 1395 1030 L 1397 1036 L 1398 1049 L 1400 1056 L 1399 1057 L 1400 1058 L 1400 1071 L 1401 1072 L 1401 1136 L 1452 1107 L 1456 1106 L 1459 1103 L 1462 1102 L 1466 1097 L 1468 1090 L 1467 1089 L 1468 1087 L 1467 1086 L 1468 1085 L 1468 1065 L 1467 1064 L 1468 1061 L 1467 1060 L 1467 1041 L 1466 1040 L 1467 1039 L 1466 1038 L 1466 1018 L 1465 1017 L 1463 993 Z M 31 979 L 31 982 L 28 986 L 25 1028 L 24 1029 L 24 1051 L 23 1052 L 24 1053 L 23 1054 L 23 1092 L 24 1097 L 30 1103 L 41 1108 L 90 1136 L 90 1063 L 91 1062 L 92 1044 L 94 1037 L 94 1028 Z M 1167 969 L 1159 977 L 1140 1001 L 1118 1036 L 1104 1064 L 1091 1096 L 1085 1115 L 1079 1143 L 1146 1128 L 1155 1100 L 1168 1072 L 1184 1046 L 1197 1029 Z M 323 969 L 296 1022 L 294 1030 L 307 1047 L 321 1070 L 332 1093 L 346 1129 L 412 1143 L 408 1123 L 395 1084 L 373 1037 L 343 991 L 328 973 Z M 1508 904 L 1491 930 L 1482 941 L 1477 949 L 1477 953 L 1478 954 L 1478 957 L 1479 958 L 1480 964 L 1481 965 L 1481 969 L 1482 970 L 1482 974 L 1483 975 L 1483 979 L 1484 980 L 1484 985 L 1485 986 L 1486 1000 L 1487 1001 L 1487 1010 L 1488 1011 L 1488 1021 L 1489 1022 L 1489 1028 L 1491 1025 L 1492 1020 L 1494 1017 L 1494 1015 L 1496 1011 L 1496 1008 L 1497 1007 L 1497 1005 L 1498 1004 L 1498 1002 L 1501 995 L 1501 992 L 1502 991 L 1502 988 L 1503 987 L 1503 984 L 1504 983 L 1504 980 L 1505 979 L 1505 976 L 1506 975 L 1506 972 L 1507 971 L 1507 964 L 1508 963 L 1508 950 L 1509 949 L 1509 906 Z M 1 904 L 1 923 L 0 924 L 1 925 L 1 926 L 0 927 L 1 928 L 1 929 L 0 930 L 1 931 L 0 932 L 1 933 L 1 934 L 0 935 L 1 936 L 0 937 L 1 938 L 1 958 L 2 959 L 2 967 L 3 968 L 3 972 L 4 973 L 4 976 L 5 977 L 5 980 L 6 981 L 6 983 L 7 983 L 7 982 L 8 981 L 8 976 L 9 975 L 9 971 L 10 970 L 10 966 L 11 965 L 11 962 L 12 961 L 12 958 L 13 957 L 13 955 L 14 954 L 14 952 L 15 951 L 15 949 L 16 948 L 16 946 L 17 945 L 17 943 L 18 942 L 18 939 L 19 938 L 19 936 L 20 935 L 20 933 L 19 932 L 18 929 L 15 926 L 15 925 L 11 920 L 10 917 L 8 915 L 8 914 L 6 912 L 6 911 L 4 909 L 4 908 L 2 906 L 2 905 Z M 586 958 L 597 984 L 614 1042 L 659 1047 L 730 1050 L 810 1049 L 875 1044 L 897 976 L 919 930 L 918 908 L 916 902 L 909 897 L 781 906 L 678 904 L 599 897 L 591 905 Z M 548 889 L 547 890 L 548 891 L 548 892 L 550 894 L 550 895 L 552 897 L 552 898 L 554 900 L 554 901 L 555 902 L 555 903 L 557 905 L 557 906 L 560 909 L 560 910 L 561 911 L 561 912 L 563 914 L 563 915 L 564 916 L 564 917 L 565 918 L 565 919 L 566 920 L 566 921 L 567 921 L 567 920 L 568 919 L 568 909 L 569 908 L 569 895 L 568 894 L 568 893 L 567 893 L 566 892 L 564 892 L 563 891 L 557 891 L 556 890 L 550 890 L 549 889 Z M 1362 875 L 1355 895 L 1350 916 L 1348 919 L 1348 922 L 1341 941 L 1335 965 L 1338 965 L 1348 969 L 1362 978 L 1373 989 L 1383 1003 L 1385 1008 L 1387 1009 L 1445 962 L 1452 955 L 1452 952 L 1447 939 L 1436 919 L 1427 907 L 1414 894 L 1404 887 L 1390 880 L 1372 875 Z M 1339 875 L 1335 874 L 1308 879 L 1260 897 L 1241 907 L 1215 924 L 1196 939 L 1184 952 L 1205 996 L 1214 1011 L 1234 994 L 1264 976 L 1285 967 L 1302 963 L 1310 963 L 1313 961 Z M 151 875 L 178 961 L 180 963 L 193 964 L 214 970 L 234 980 L 257 995 L 276 1012 L 306 952 L 281 929 L 255 911 L 229 897 L 203 886 L 178 878 L 157 874 Z M 128 874 L 126 875 L 125 874 L 115 875 L 104 878 L 91 884 L 78 892 L 61 909 L 50 926 L 38 952 L 38 955 L 45 962 L 103 1008 L 106 1006 L 107 1003 L 120 985 L 130 977 L 131 975 L 143 968 L 156 964 Z M 996 860 L 964 898 L 943 932 L 917 988 L 905 1024 L 901 1047 L 1056 1140 L 1065 1104 L 1086 1050 L 1110 1006 L 1150 951 L 1003 861 Z M 491 859 L 340 951 L 380 1005 L 406 1053 L 424 1099 L 434 1140 L 544 1076 L 590 1046 L 573 986 L 551 938 L 519 889 L 498 863 Z M 473 840 L 468 834 L 441 814 L 407 794 L 366 778 L 338 774 L 198 860 L 233 874 L 263 890 L 292 909 L 323 935 L 470 847 L 473 844 Z M 1017 840 L 1017 844 L 1023 849 L 1167 935 L 1202 906 L 1230 888 L 1257 874 L 1293 860 L 1150 773 L 1133 775 L 1109 782 L 1066 802 L 1042 818 Z M 1190 771 L 1323 853 L 1338 852 L 1339 851 L 1350 851 L 1351 850 L 1352 851 L 1348 847 L 1299 817 L 1285 807 L 1239 780 L 1215 773 L 1202 772 L 1201 771 Z M 301 771 L 290 771 L 289 772 L 269 774 L 248 781 L 237 787 L 223 797 L 218 799 L 179 825 L 166 832 L 143 847 L 139 851 L 161 852 L 162 853 L 169 852 L 195 835 L 220 821 Z M 1504 755 L 1502 755 L 1482 788 L 1457 820 L 1415 862 L 1415 865 L 1427 874 L 1444 891 L 1459 912 L 1467 927 L 1473 920 L 1494 887 L 1507 858 L 1508 853 L 1508 802 L 1507 801 L 1506 766 Z M 5 755 L 3 763 L 3 783 L 2 784 L 2 800 L 1 801 L 1 856 L 3 860 L 3 863 L 15 887 L 29 908 L 32 910 L 43 894 L 65 872 L 82 860 L 85 859 L 86 857 L 64 834 L 41 807 L 23 782 L 8 757 Z M 1063 697 L 1058 694 L 1049 694 L 992 709 L 903 725 L 823 732 L 779 733 L 767 739 L 765 746 L 765 869 L 767 876 L 771 881 L 779 883 L 888 876 L 961 865 L 1006 818 L 1025 802 L 1057 781 L 1083 769 Z M 444 696 L 422 775 L 480 815 L 527 862 L 570 870 L 665 880 L 732 883 L 740 879 L 743 872 L 744 760 L 742 740 L 735 734 L 607 725 L 512 708 L 457 693 Z M 1423 659 L 1418 662 L 1388 696 L 1366 717 L 1318 755 L 1283 777 L 1287 783 L 1330 809 L 1392 851 L 1397 850 L 1430 818 L 1446 800 L 1455 787 L 1446 734 L 1431 676 L 1426 662 Z M 85 659 L 81 666 L 74 689 L 63 734 L 55 776 L 55 790 L 78 818 L 102 842 L 106 844 L 213 777 L 217 773 L 201 763 L 148 722 L 113 688 L 87 659 Z M 1471 575 L 1457 605 L 1442 629 L 1439 636 L 1453 677 L 1454 684 L 1459 699 L 1459 703 L 1464 718 L 1470 750 L 1473 761 L 1474 761 L 1478 756 L 1493 729 L 1499 715 L 1500 703 L 1499 702 L 1496 671 L 1486 621 L 1476 581 L 1474 576 Z M 35 575 L 16 653 L 10 694 L 9 712 L 20 737 L 31 756 L 36 762 L 41 739 L 41 734 L 43 730 L 48 705 L 63 654 L 68 642 L 69 635 L 66 627 L 62 623 L 50 601 L 39 577 Z M 1296 577 L 1293 574 L 1284 576 L 1241 609 L 1182 643 L 1088 683 L 1085 689 L 1086 697 L 1104 760 L 1147 749 L 1197 747 L 1230 753 L 1260 765 L 1311 733 L 1342 709 L 1349 700 L 1347 689 L 1321 626 Z M 214 575 L 205 589 L 176 650 L 160 690 L 160 703 L 197 733 L 236 759 L 244 759 L 260 753 L 284 748 L 326 747 L 362 753 L 399 765 L 402 762 L 421 695 L 419 683 L 355 657 L 305 632 L 252 599 L 222 575 Z M 627 555 L 602 686 L 603 696 L 607 700 L 675 708 L 778 711 L 870 705 L 900 701 L 904 698 L 905 681 L 882 557 L 876 549 L 811 554 L 738 555 L 683 553 L 637 548 Z M 1113 482 L 1105 481 L 1076 495 L 1026 514 L 954 534 L 910 542 L 905 547 L 904 557 L 918 622 L 927 681 L 935 694 L 944 695 L 1050 670 L 1132 641 L 1179 618 L 1181 615 L 1179 601 L 1157 556 Z M 394 482 L 371 517 L 325 606 L 326 615 L 376 641 L 442 665 L 562 695 L 571 695 L 576 692 L 580 685 L 603 562 L 603 546 L 598 542 L 550 533 L 495 518 L 445 500 L 402 480 Z M 1402 394 L 1398 394 L 1393 422 L 1372 474 L 1351 508 L 1311 554 L 1311 560 L 1337 610 L 1363 673 L 1369 682 L 1393 660 L 1412 637 L 1428 613 L 1444 584 L 1461 538 L 1460 525 L 1442 477 L 1421 430 Z M 107 393 L 69 472 L 48 528 L 48 539 L 64 583 L 84 619 L 117 662 L 138 682 L 141 681 L 166 619 L 198 557 L 196 552 L 167 520 L 139 479 L 118 430 L 111 395 Z M 1254 363 L 1249 363 L 1227 391 L 1191 426 L 1172 441 L 1137 463 L 1133 469 L 1134 474 L 1173 540 L 1200 596 L 1205 601 L 1210 601 L 1235 586 L 1273 558 L 1314 518 L 1342 483 L 1344 477 L 1337 463 L 1304 418 L 1269 377 Z M 254 362 L 231 385 L 195 429 L 166 471 L 165 479 L 189 513 L 227 551 L 253 572 L 291 597 L 300 600 L 306 596 L 338 532 L 371 478 L 373 468 L 368 461 L 337 442 L 308 418 L 281 391 L 258 362 Z M 925 363 L 919 361 L 878 371 L 838 377 L 773 381 L 766 386 L 765 522 L 771 530 L 782 532 L 810 531 L 888 523 L 943 513 L 980 504 L 990 499 L 991 492 L 975 457 Z M 583 362 L 565 391 L 531 458 L 517 489 L 517 498 L 528 504 L 622 523 L 716 532 L 730 532 L 741 528 L 744 513 L 742 385 L 735 381 L 680 378 L 632 371 L 594 361 Z M 1064 292 L 1059 293 L 1022 320 L 993 335 L 952 351 L 949 355 L 950 362 L 979 415 L 1012 485 L 1018 490 L 1028 489 L 1086 466 L 1117 450 L 1152 428 L 1172 413 L 1177 407 L 1175 397 L 1147 366 L 1095 315 L 1074 297 Z M 443 292 L 430 300 L 388 338 L 335 393 L 329 401 L 329 404 L 335 412 L 352 425 L 387 447 L 444 475 L 478 488 L 491 489 L 495 485 L 518 434 L 558 360 L 559 355 L 555 350 L 529 341 L 489 321 L 450 293 Z M 1282 230 L 1282 272 L 1280 288 L 1270 322 L 1264 335 L 1264 342 L 1309 391 L 1331 418 L 1349 444 L 1358 452 L 1369 426 L 1377 396 L 1380 373 L 1379 353 L 1362 327 L 1331 285 L 1301 249 Z M 228 229 L 217 239 L 189 271 L 156 314 L 130 353 L 129 378 L 134 408 L 141 431 L 150 452 L 158 446 L 168 430 L 195 395 L 243 342 L 244 333 L 234 308 L 227 275 L 226 246 Z M 978 313 L 966 297 L 929 259 L 898 231 L 869 209 L 825 224 L 799 229 L 770 231 L 765 236 L 765 352 L 770 358 L 838 354 L 892 345 L 951 328 L 975 318 Z M 530 309 L 530 315 L 535 319 L 576 334 L 605 342 L 665 353 L 718 358 L 738 358 L 743 351 L 744 337 L 743 234 L 739 231 L 711 229 L 689 225 L 658 216 L 643 209 L 638 209 L 616 225 L 587 250 L 561 275 Z M 1119 192 L 1117 208 L 1111 227 L 1101 247 L 1085 268 L 1083 275 L 1159 348 L 1191 384 L 1198 388 L 1215 371 L 1237 339 L 1250 312 L 1257 289 L 1257 282 L 1241 265 L 1188 226 L 1138 198 L 1124 192 Z M 389 191 L 353 207 L 317 228 L 271 262 L 252 281 L 252 291 L 256 305 L 271 339 L 295 373 L 305 384 L 310 387 L 318 382 L 332 365 L 371 325 L 426 275 L 425 269 L 407 245 L 398 228 L 392 209 Z M 892 194 L 892 197 L 932 232 L 1001 303 L 1005 303 L 1028 289 L 1045 276 L 1063 259 L 1076 244 L 1083 233 L 1092 211 L 1088 205 L 1059 191 L 1029 179 L 983 163 L 934 151 L 925 151 L 920 163 L 912 175 Z M 617 195 L 593 170 L 584 151 L 578 150 L 522 164 L 486 176 L 419 206 L 417 212 L 426 233 L 441 254 L 459 272 L 478 287 L 498 300 L 506 302 L 553 252 L 590 218 L 614 200 Z M 1064 72 L 1083 92 L 1099 114 L 1111 138 L 1119 166 L 1186 200 L 1228 228 L 1259 253 L 1260 252 L 1259 229 L 1255 206 L 1246 193 L 1204 157 L 1154 121 L 1108 93 Z M 444 72 L 401 93 L 354 122 L 310 153 L 262 193 L 255 201 L 253 207 L 248 251 L 251 252 L 281 228 L 319 202 L 351 184 L 389 166 L 391 164 L 397 139 L 407 118 L 424 93 Z M 605 128 L 605 142 L 611 157 L 625 172 L 640 183 L 659 193 L 682 201 L 709 207 L 737 210 L 793 208 L 824 202 L 850 193 L 883 173 L 895 161 L 904 142 L 904 129 L 898 115 L 885 99 L 870 88 L 830 70 L 802 63 L 777 60 L 723 61 L 690 67 L 667 74 L 647 83 L 626 97 L 613 111 Z M 879 67 L 903 85 L 912 95 L 921 110 L 926 127 L 983 140 L 1022 153 L 1053 165 L 1090 183 L 1096 184 L 1097 171 L 1090 144 L 1081 126 L 1069 109 L 1036 77 L 994 50 L 967 37 L 957 37 L 920 47 Z M 630 68 L 607 55 L 568 40 L 551 37 L 543 37 L 515 50 L 475 75 L 438 111 L 426 128 L 417 149 L 412 169 L 412 183 L 418 183 L 448 168 L 501 148 L 537 137 L 581 128 L 584 124 L 587 112 L 596 96 L 613 79 Z M 765 1 L 765 37 L 766 38 L 805 42 L 815 45 L 828 47 L 851 55 L 857 54 L 874 45 L 879 41 L 886 39 L 909 28 L 924 23 L 910 18 L 890 13 L 876 11 L 866 8 L 848 6 L 847 5 L 840 5 L 832 3 L 831 4 L 830 3 L 822 3 L 821 2 L 820 3 L 819 2 L 810 2 L 809 1 L 795 1 L 794 0 L 766 0 Z M 744 2 L 741 0 L 719 0 L 718 1 L 691 2 L 690 3 L 657 6 L 656 7 L 645 8 L 639 10 L 624 12 L 615 15 L 611 15 L 592 21 L 589 21 L 586 23 L 611 33 L 618 37 L 625 39 L 649 53 L 660 54 L 681 47 L 694 45 L 708 41 L 743 38 L 744 37 Z" fill="#CBD5E1"/>
</g>
<text x="451.9748603351955" y="246.0" font-family="Inter Display" font-size="140" font-weight="700" fill="#CBD5E1">Musher</text>
<text x="451.9748603351955" y="382.0" font-family="Inter Display" font-size="119" font-weight="600" fill="#CBD5E1">Hub</text>
</svg>