<?xml version="1.0" encoding="UTF-8"?>
<svg xmlns="http://www.w3.org/2000/svg" width="2048" height="2048" viewBox="0 0 2048 2048">
<path d="m 1411,1644 c -2.3374,16.4558 -17.2476,30.1273 -35,28 14.9911,31.1891 38.3389,58.9168 56,89 -9.0436,24.9511 9.4239,57.9408 38,45 20.2276,-19.264 -4.8293,-44.4106 -11,-64 -17.0184,-32.203 -31.2269,-65.6664 -48,-98 z m 7,-28 c -17.8214,5.2105 -4.5202,40.3419 -2,12.1475 -1.2611,-4.8477 3.1922,-7.3284 2,-12.1475 z m 53,-39 c -17.7346,1.1201 -17.4905,15.1365 -15,31 5.8035,24.3818 1.0801,49.1054 -10,69 -6.7335,24.0377 35.3933,39.2146 37,12 6.1106,-35.4019 10.9503,-71.3302 14,-108 -8.894,-0.7695 -16.4979,-4.7074 -26,-4 z m -317,-86 c 2.7032,21.5237 -30.0721,26.993 -38,25 10.4275,40.3609 50.6953,69.8529 44,116 -1.4766,27.2129 50.1636,29.9193 44,0 -8.414,-31.5426 -23.2956,-60.4062 -34,-91 -7.6998,-15.7725 -13.3534,-32.0967 -16,-50 z m 8,-13 c -16.5546,11.2161 -6.8537,8.2425 0,0 z m 217,-30 c -41.7924,9.6512 -40.441,63.1037 -34,97.8525 5.5757,33.5346 0.017,71.681 13,102.1475 16.349,21.6458 44.7291,1.9505 40,-22 17.7452,-8.5746 26.1998,-24.0882 22,-45.4102 -2.2561,-27.5515 7.6771,-50.0542 11,-75.2949 0.5865,-27.4711 -21.4115,-60.3076 -52,-57.2949 z m -159,-8 c -1.01,24.5085 21.714,42.3965 31,64 13.2445,17.8849 25.9002,36.0136 22,61 6.5194,30.4352 60.3057,17.8563 41,-12 -11.8444,-23.5003 -22.5812,-48.7722 -40,-69 -20.5807,-8.9518 -46.1524,-20.6787 -54,-44 z m -279,-45 c -3.81573,23.794 -40.17853,9.4569 -35,27 12.30779,27.7573 32.37882,54.1461 34,85 -10.6062,23.6163 25.88481,46.6462 39,24 1.3514,-30.4549 -15.51754,-56.4613 -22,-85 -6.28532,-16.5682 -13.19035,-33.0027 -16,-51 z m 895,-1 c -10.9171,13.9737 -35.4624,10.1613 -45,12 19.4168,31.3461 49.7229,58.1818 68,90 -1.4711,23.4022 13.7579,52.4017 42,43 24.3257,-16.1529 0.8214,-44.3768 -9,-62 -20.4952,-26.471 -33.944,-59.1477 -56,-83 z m -318,-8 c -21.1268,-0.312 8.126,7.966 14,13 22.8186,17.4463 28.7987,45.925 25,74 21.6174,-30.1007 7.8838,-87.0191 -35,-86 -1.3454,-3.3185 -2.9881,1.8971 -4,-1 z m 41,75 c 4.1931,-3.2493 0.6076,5.4364 0,0 z m -339,-79 c 0.7576,17.7141 -27.8416,36.6646 -1,48 3.7941,-5.86 -0.5592,-33.8412 1,-48 z m 252,-1 c -31.2617,6.5754 -63.3853,21.357 -84,46 -4.0204,14.7026 22.9411,4.8322 29.4313,18.4313 32.7963,22.0223 31.0569,65.6257 20.5687,98.4212 -7.3385,22.8959 15.4636,27.8776 30.8525,21.1475 30.8831,9.8405 59.5294,-11.5372 73.1475,-37 1.5523,-35.3033 14.4605,-79.4715 -7.4313,-109.4313 C 1515.9474,1402.3963 1492.999,1393.5085 1472,1381 Z m 44,74 c 12.6969,8.9614 5.3175,44.2005 6,63 -8.5758,9.4899 -23.5571,28.5369 -37,21 5.2903,-23.4556 -11.1187,-57.6959 9,-74 7.3787,-3.0692 13.8418,-8.8253 22,-10 z m -460,-99 c -27.5177,-3.331 -33.8573,6.7721 -28,35.2627 5.3488,24.6553 0.1577,50.4029 -7,70.7373 1.4614,23.0732 39.6163,25.7825 39,0 3.6543,-34.51 1.2211,-71.5416 5,-106 h -4.8525 z m 323,-28 c 17.8563,15.5784 38.4349,32.7525 56,49 20.7364,-4.135 4.375,-21.5302 -8,-24 -15.4995,-9.577 -32.383,-15.8249 -48,-25 z m -216,-6 c -38.6956,13.7646 -34.3484,59.8691 -49,90 -3.4104,26.2284 -21.2795,49.7922 -16,77 10.5992,18.9783 37.7637,19.1929 46,-1 36.2665,-24.1474 39.5218,-67.9916 61,-101 14.3963,-29.5237 -6.5075,-69.2521 -42,-65 z m 129,-18 c -25.1312,12.428 -56.8654,32.7488 -58,63 -2.0153,35.4883 -7.347,83.4755 32,97 19.9512,14.0607 41.7493,23.6625 62,37 0.1726,-28.3432 16.8437,-54.6279 42,-66 0.8602,-17.054 27.0191,-28.3499 20,-44 -9.5203,-11.2466 -18.8625,-8.363 -27,2 -15.5027,15.1333 -22.2835,44.0896 -40,54 -22.6137,-13.3285 -47.4627,-24.5361 -67,-43 -7.6323,-36.2235 34.082,-60.006 57,-79 -6.7206,-7.5668 -15.4295,-12.8263 -21,-21 z m 284,-8 c 9.4355,24.3227 24.362,46.3711 31,71.8525 -4.018,17.2861 1.4776,47.94 25,38.1475 7.7845,-24.3683 8.6965,-50.5451 -5,-72 -6.5775,-21.2958 -37.458,-19.8212 -51,-38 z m -149,-20 c -25.7554,6.8371 -10.6072,36.1035 -10,55 9.7199,6.6761 20.0104,11.9748 30,18 -4.8119,-23.7934 -27.162,-27.0278 -18,-35 16.3267,-2.1131 25.5025,21.3002 41,26 17.2454,15.8431 11.1814,6.0112 8,-10 -5.7943,-15.2326 1.1858,-40.0554 -20,-43 -10.1891,-4.0163 -18.6606,-12.235 -31,-11 z m 279,-2 c -27.6289,3.0153 -47.4413,29.1915 -46,57 -5.6789,38.4091 -17.3484,74.3369 -20,114 1.9942,23.9837 41.0293,30.4516 43,4 6.6533,-8.3138 18.9578,-16.6029 14,-1 4.4357,17.3643 -17.4269,39.7792 -37,30 16.8784,31.2693 38.1834,60.7051 55,92 -6.1898,26.0581 15.3016,56.6782 42,44 20.1926,-17.6442 -5.5057,-41.6959 -11,-61 -16.001,-29.114 -28.4969,-59.6798 -44,-89 -2.4787,-16.3596 -0.4294,-27.4241 10,-38 10.4626,-26.0274 12.3526,-55.6055 34,-77 15.189,-28.6637 -6.04,-73.6961 -40,-75 z m -7,164 c 4.3706,-4.7115 5.5873,4.535 0,0 z M 724,1272 c -3.11657,15.6528 -27.95349,16.7333 -37,7 3.50393,29.2338 15.08808,61.8146 13,92 -11.48105,15.8056 -13.33465,49.1933 15,47 26.23223,-11.2797 12.51726,-49.674 15,-73.5576 -3.89893,-22.4464 3.79157,-54.5869 -6,-72.4424 z m 839,-18 c -2.4899,28.9444 32.7456,36.1221 52,49 10.5492,6.6169 21.9927,11.0747 32,19 0.545,-15.842 12.7297,-32.8911 14,-44 -33.3364,-6.243 -63.834,-19.7738 -98,-24 z m -337,-8 c -26.5296,17.162 -57.7703,26.127 -81,49 -5.7346,11.1816 -8.2527,30.5042 7,17 28.2189,-13.981 69.0824,11.1461 68,40 8.1639,-27.4239 37.2261,-42.7423 58,-59 -17.0675,-16.3079 -34.3228,-32.1629 -52,-47 z m 62,-2 c 7.8616,10.1696 29.4203,24.7189 34,30 -9.0267,-13.0548 -22.6489,-20.2989 -34,-30 z m -340,-4 c -29.14852,12.0981 -30.73131,48.7352 -44,73 -3.08472,26.1582 -33.30654,56.6124 -10,80 20.88325,20.1722 44.7608,-7.6525 58,-23 14.64927,-26.0072 28.39382,-52.3892 44,-78 5.7865,-29.5807 -17.39854,-56.2876 -48,-52 z m 528,-8 c 5.7637,37.0979 8.7377,75.3513 18,111 13.0153,27.3701 58.4901,9.03 51,-21 -1.4545,-25.1483 6.9487,-51.4968 0,-75 -23.4553,-3.7136 -44.8411,-13.0499 -69,-15 z m -37,-11 c 12.1641,16.0371 -0.3905,49.8049 24,52 15.2151,7.9248 -8.9044,-48.6146 0,-34 5.9022,-20.6445 -13.7238,-11.2929 -24,-18 z m -632,0 c 1.04044,3.3166 1.84518,-1.3738 0,0 z m -5,0 c 9.74583,27.129 23.30559,52.6782 35,79 -4.26017,19.5819 -3.41273,52.7566 26,43 20.95049,-12.5479 2.64592,-40.8071 -2,-59 -3.67444,-18.65 -18.14477,-27.7306 -35,-34 -9.29018,-9.7039 -17.81774,-18.2091 -24,-29 z m 1043,-4 c -22.4549,3.8347 17.6938,6.7208 20,25 10.7569,13.8609 8.3742,37.8491 10,52 21.5105,-26.6119 5.9794,-73.4033 -30,-77 z m -56,-11 c -24.8772,0.07 -39.9079,20.2136 -61,30 -11.9736,5.2352 -31.5907,25.9624 -8,27 44.2536,8.9507 61.3793,76.9525 28,106 -5.5522,13.6761 21.0505,32.1727 36,24 45.6419,7.6243 87.0258,-30.6462 80,-78 1.0127,-27.7463 6.5154,-69.3719 -27,-82 -15.2752,-8.1795 -31.0295,-20.7541 -48,-27 z m 48,72 c 18.0835,5.2735 9.9552,82.669 7,65 -8.0425,12.2065 -25.5131,23.3042 -38,23 -0.6139,-25.9361 -3.123,-47.1398 0,-69 8.7936,-10.0298 19.401,-15.7835 31,-19 z m -513,-72 c -1.8739,13.2439 -14.9262,21.0561 -29,19 -1.2361,15.0038 23.3192,13.2032 27,29 13.8682,14.8475 17.6226,43.81 41,44 -14.3396,-28.6404 -22.4128,-59.8764 -38,-88 1.7475,-2.1953 -1.8333,-2.1834 -1,-4 z m -50,-28 c -1.2868,17.9071 14.2002,49.2806 32,29 3.2698,-9.876 33.0984,-15.8373 14,-17 -15.1835,-4.2941 -30.112,-9.4182 -46,-12 z m -202,-9 c -3.7608,4.9243 48.4821,21.1506 29.7251,24.7251 15.9503,14.2305 17.8959,41.8801 14.2749,57.2749 22.1472,-24.7768 7.9294,-76.8683 -29,-79 -4.4093,-2.1357 -9.878,-2.6668 -15,-3 z m -269,0 c 4.45396,18.4661 -22.78502,27.5806 -4,40 13.86813,25.2685 6.80248,-46.2592 5,-36.8525 V 1169 Z m 224,-1 c -26.2222,8.0036 -55.44286,24.7541 -68,52 -1.6218,12.9068 22.56839,7.8379 30,18 25.7584,20.7679 26.2706,62.4991 4,85 -2.34841,26.0112 34.0872,19.7074 48,20 32.0389,1.8137 64.7564,-30.492 62,-64 4.3709,-34.126 5.2053,-79.2632 -32,-94 -14.145,-7.4537 -27.1178,-17.5004 -44,-17 z m 48,67 c 20.869,1.3346 12.1906,72.1147 10,55.7051 -0.8777,16.5188 -20.9871,26.1248 -35,29.2949 -6.4766,-21.2551 -1.7765,-47.014 -2,-69 8.8578,-6.836 16.6429,-12.6017 27,-16 z m 145,-72 c 6.3604,4.2942 9.5161,3.5096 0,0 z m 281,-5 c -14.9208,-0.093 -40.0323,27.8482 -16,32 20.3505,3.1209 44.1779,14.5547 61,15 0.5382,-27.1063 -12.7977,-53.1346 -45,-47 z m -52,0 c -10.3576,5.6824 -43.5936,-1.0143 -27,16 11.0055,-0.012 30.3377,10.0061 36,6 -1.6798,-7.4557 -1.9405,-17.7953 -9,-22 z m 191,-31 c -27.5066,11.8085 -60.4081,25.4929 -75,55 -3.1684,15.0519 -6.9064,35.5424 15,33 11.6696,-6.1219 11.9257,-27.3126 25.4313,-36.4313 15.2358,-19.9771 41.8655,-35.9734 62.5687,-16.5687 12.9952,10.6852 38.1985,17.754 40,36 -11.2699,13.9393 -23.7962,27.1571 -36,40 14.4299,6.0326 30.4061,12.2337 40.2938,-7.2938 16.461,-13.8997 40.0344,-24.4472 54.7062,-34.7062 -35.9675,-25.7896 -72.8414,-44.9524 -111,-65 -5.0286,-2.1508 -9.8399,-4.4301 -16,-4 z m -572,-7 c 6.0297,12.4997 7.5954,33.6447 19.8525,39 12.0726,-2.7057 35.1044,13.3365 24.1475,-6 -8.0136,-18.7631 -26.7378,-27.4606 -44,-33 z m -310,-8 c -31.01097,14.6828 -36.90727,51.7195 -53,78 -8.13876,22.0215 -24.95794,42.1089 -23,67 9.75422,20.7785 36.16887,15.2984 48,-1 28.54199,-23.3309 39.83681,-58.1746 62,-86 13.51075,-25.8281 0.0671,-62.7101 -34,-58 z m 130,-18 c -34.1641,12.9292 -73.12382,40.0603 -69,82.7051 -4.39454,27.7116 4.13966,61.6297 34,70.2949 17.24105,10.0203 35.19363,23.2285 52,31 5.00094,-20.4568 16.75605,-41.022 37,-51 4.9926,-27.9798 36.23369,-51.2332 55,-62 -19.50088,-30.8141 -45.70365,-57.6197 -80,-68 -8.46348,-3.8831 -18.97002,-2.8951 -29,-3 z m 8,20 c 22.04438,1.0917 39.90406,20.8885 60,30 23.42951,12.3448 0.50847,17.7414 -8.43126,30.4313 C 927.92019,1189.4675 923.2791,1218.877 901,1230 c -19.49041,-13.7988 -50.0007,-21.6404 -62,-44.8525 1.78401,-30.3516 31.43953,-58.13 57,-71.1475 z m 715,-33 c -14.9032,1.6547 -19.4041,4.4573 -4,10 13.5223,6.1296 25.0051,17.1831 37,27 -1.973,-17.7326 -13.3672,-36.144 -33,-37 z m -55,-3 c -25.6224,13.0261 -49.2756,30.8061 -74,46 -6.9592,6.6245 -8.2885,34.174 -7,34 22.1473,-25.6738 72.8964,-16.8597 80,19 2.1432,-27.637 36.7099,-39.4743 57,-53 10.8488,-10.4371 37.6279,1.6922 -2,-18 -16.4869,-10.4193 -33.9405,-27.8368 -54,-28 z m -367,-5 c 7.8375,15.8086 12.1768,36.9936 27,47 12.8364,2.7453 36.0559,8.5499 32,6 -11.5449,-17.3042 -16.1577,-48.8442 -42,-47 -5.1827,-3.0619 -11.83,-2.9419 -17,-6 z m 141,-23 c -29.1205,7.2526 -33.4115,39.2818 -39,64 -8.0352,14.1365 -4.6132,31.4003 15,29 15.1416,3.6582 30.1004,7.7577 45,12 -1.129,-30.1568 36.3371,-50.8568 18,-83 -4.7109,-14.2572 -24.0859,-23.6107 -39,-22 z m -514,-9 c -24.86475,18.5554 -59.58256,27.1806 -76,55 -3.52821,11.3223 -6.63929,21.3462 5,10 27.6892,-17.5989 65.26376,6.7893 66,38 7.42093,-33.663 45.13632,-52.6558 74,-63 -15.08563,-18.8566 -40.76475,-29.11 -61,-40 h -4.85254 z m 238,-1 c -4.8021,26.5756 44.364,44.308 51,13 -17.4731,-3.1547 -34.3738,-7.7563 -51,-13 z m -194,-6 c -10.78282,-0 -20.46762,5.75 -6,9 22.03402,8.445 40.05345,24.2864 56,41 1.27165,-26.6652 -26.85842,-48.9048 -50,-50 z m 69,-50 c 1.02168,7.26786 22.84338,10.00025 31,18 27.79046,15.0947 64.5623,14.8785 95,26 77.1072,18.7411 154.3387,37.1822 231,57 7.8997,-24.1124 -24.775,-16.1369 -38,-24 -87.5779,-22.3524 -176.1062,-42.4103 -264,-64 -18.03435,-4.84888 -35.42269,-11.93729 -55,-13 z m 521,-1 c -9.6894,6.1133 15.3056,8.66966 19,15 21.8284,13.5572 17.9997,47.263 21,62 19.0272,-26.757 8.3335,-80.62758 -32,-77 h -4.8525 z m -41,-5 c -27.8961,8.43314 -63.045,27.8517 -72,59 34.1545,1.6631 58.7236,38.2935 47,72 3.7213,13.7923 -24.3705,22.1259 -9,31 11.8327,17.6625 38.7476,11.4097 56,9 24.8029,-10.6077 54.1861,-31.9265 48,-64.5576 1.0056,-29.573 6.4745,-65.2915 -23,-79.4424 -14.3496,-12.05024 -30.2247,-20.8023 -47,-27 z m 40,70 c 21.8639,-5.7876 2.3485,95.3699 9,55 -7.5012,9.9498 -23.6769,29.7733 -36,21 1.6244,-28.1651 -9.9823,-70.9911 27,-76 z m -263,-71 c 6.4378,19.25006 -26.0005,24.0346 -18,39 15.7971,9.8231 24.0262,20.8466 19,-7 -2.385,-9.5662 -0.2906,-21.70582 -1,-32 z M 851,956 c -1.47608,7.45591 -22.46705,11.55503 -5,17 28.33006,13.80603 52.77077,33.3735 68,62 33.9386,39.3931 66.49102,84.8799 96,124 23.3102,1.2402 7.3196,-11.3578 -1,-22 -28.84083,-41.0896 -61.38502,-80.6453 -92,-121 12.52343,-1.5167 27.22324,14.5788 41,19 49.9301,30.6401 100.1527,60.5741 151,89 74.4297,64.0544 149.8069,134.0972 223,199 26.1115,23.2626 50.4469,47.2805 77,67 23.3201,-8.4488 -38.6048,-46.1381 -24,-37 -71.7996,-67.0611 -145.7317,-130.3093 -219,-199 -11.5589,-5.6163 -19.2933,-20.1316 -24,-25 79.5488,20.9511 159.3888,41.1993 239,62 76.3741,19.9015 152.5281,40.3345 229,60 25.4631,3.724 49.7693,19.7029 76,15 9.5616,-11.3919 -17.9011,-11.2587 -25,-16 -72.6871,-21.2269 -147.47,-37.3938 -220,-59 -80.2028,-19.0391 -159.2468,-40.8757 -239,-61 -42.1876,-12.133 -86.5886,-18.9222 -123,-45 -55.9013,-28.3363 -107.48373,-64.3199 -164,-92 -19.35249,-13.62937 -47.457,-28.15867 -64,-37 z m 292,-32 c -33.8016,10.0983 -45.6316,49.12461 -65,75 -2.0535,11.1822 22.8074,8.9676 32,15 15.3345,4.9444 35.8848,12.755 43,-9 18.6105,-15.40737 34.8139,-41.08267 20,-64 -5.6656,-9.94514 -18.1115,-17.40811 -30,-17 z m 136,-21 c -26.0594,12.85077 -58.3483,24.35746 -74,51 -6.0859,23.90456 -11.3263,59.7257 2,82 28.7557,8.9996 60.9463,15.1091 90,20 11.832,-11.5266 24.4132,-14.9378 27,-31 17.1463,-28.10445 44.5595,-47.54332 75,-57 -37.7226,-20.05171 -77.2817,-45.29404 -117,-65 z m -2,25 c 21.2796,2.6926 40.0561,20.32232 59,32 8.1003,15.63329 -18.3443,27.05991 -22,42 -10.8472,12.5716 -18.8716,34.7719 -32,41 -20.9643,-12.7644 -44.3677,-24.4197 -62,-43 0.7866,-30.9682 29.3782,-61.12894 57,-72 z m -82,-72 c -24.1335,17.29224 -53.3239,28.42788 -73,52 -4.6957,14.53242 -6.7575,21.28136 7,9 26.5285,-16.15049 62.7042,10.32751 64,40 5.6663,-34.80102 44.6157,-49.33391 72,-62 -18.8884,-16.65264 -39.4595,-33.49241 -63.8525,-39 h -4.8526 z m 35,-7 c -16.777,3.68742 12.2668,11.6839 19,17 14.1945,7.31995 23.7947,24.37053 38,28 1.5607,-30.8014 -27.4642,-48.85628 -57,-45 z M 195,709 c -5.2554,26.80486 -19.07471,53.84669 -17,81 21.75922,25.62262 52.81773,49.27962 88,46 18.79961,-15.3204 -11.1733,-37.73791 -19,-54 -4.09513,-17.18387 17.85874,-33.70635 13,-48 -22.61828,4.17153 -49.17357,-6.34706 -65,-25 z m 100,-1 c -8.80334,8.34274 -26.407,31.11476 -6,35 9.83912,4.54332 31.26873,25.75455 25,-0.55762 -0.20711,-15.41345 0.0584,-31.73752 -19,-34.44238 z m -27,-53 c -24.29618,-3.9446 -24.34098,25.95666 -27,41 11.62783,16.15887 45.04648,11.03028 46,-12 5.13082,-19.62112 5.34754,-32.83669 -19,-29 z m 118,-91 c -9.13088,9.32402 -32.84627,9.54506 -25,30 3.82724,16.80869 16.59939,20.36451 30,10 16.21005,-12.88213 -5.15449,-24.87713 -5,-40 z m -15,46 c 3.31363,-4.16449 4.01389,4.13778 0,0 z m -98,-77 c -2.17903,30.7466 42.98637,10.08464 40.70508,18 C 340.36779,549.6726 291.5969,538.4577 300,540 c -9.21651,-1.74891 -17.76962,-5.31697 -27,-7 z m -82,-14 c -11.23242,40.117 -7.05237,85.34243 9,122 5.67475,16.89823 7.78968,34.57836 -2,50 5.88408,22.27813 34.53917,27.78348 54,33 20.73231,0.36979 30.83324,-17.00419 2.29492,-10 C 228.42941,713.955 226.91653,682.09054 238,666 c 0.9513,-25.49964 32.66501,-22.59324 51,-20 -2.7682,-22.97564 -9.12473,-46.60449 -10,-69 11.91729,-1.31298 7.19663,27.06767 18,14 9.48459,8.07801 -7.47537,14.97998 8,26 17.09355,26.12438 7.99716,-38.03483 7,-25 0.21765,-12.15993 19.68914,-37.80969 -5.55762,-31 -30.17563,3.18809 -51.72952,-9.49582 -78.44238,-14 -1.71836,32.02769 12.68303,62.95882 6,93 -7.48089,6.82003 -24.97377,29.84416 -27,9 -10.42302,-39.02185 -18.32618,-81.81186 -10,-124 -4.34381,0.007 -1.55426,-6.79398 -6,-6 z m 174,-16 c -13.36847,3.58691 -36.27841,20.74742 -25,35 18.81943,0.48044 20.87316,30.14088 41,19 16.84023,-7.73966 29.94796,-24.9736 12,-40 -5.21359,-12.78702 -15.75464,-12.08835 -28,-14 z M 203,481 c -18.01931,25.63004 11.79868,49.21613 34,55 10.42932,7.9913 38.10152,6.9723 22,-8 -21.83042,-8.97289 -52.91784,-18.12081 -56,-47 z m 105,-5 c -14.32191,9.35939 -29.69998,29.09049 -22,45 11.66388,4.44718 32.34655,13.18579 40,10 -9.19767,-16.88761 19.40603,-29.75228 19,-37 -12.8784,-4.82353 -24.52181,-15.25809 -37,-18 z m 171,-11 c -28.67307,7.21332 -52.92119,25.10937 -78,41 12.06775,7.94203 9.39181,21.66628 21,10 19.62453,-8.31176 37.54565,-25.32638 59,-26 14.94673,12.08491 20.99941,38.46194 20,59 -29.8016,32.11054 -70.67026,45.97742 -106,69 -12.69021,6.21432 -28.49517,20.10167 -36,-1 -7.79833,-14.69758 -16.14592,-32.75381 -4,-48 2.76034,-16.1417 -18.65347,-22.73837 -23,-5 -13.58383,45.60617 -0.85123,98.87376 -5,149.64066 -0.16207,50.8554 2.81879,102.01343 0,153.35934 -19.22096,-2.8104 -35.3885,-25.77901 -55,-18 -26.18124,15.81986 -49.63772,-10.04973 -72,-19 -20.0534,-10.85686 -41.97109,-27.03348 -37,-54 -18.63148,-1.10669 -37.47991,-29.35965 -53,-6 -12.161976,13.31892 -3.79351,31.26502 13,33 73.80362,38.19796 146.63839,78.73494 220,118 83.06545,44.842 165.47964,91.2563 249,135 32.33055,19.8501 77.38778,38.3332 117,21 22.32623,-9.4715 33.49086,-34.3349 50,-49 36.92611,-3.2754 76.97515,-12.392 110,-25 1.31599,-0.9312 -19.60525,-8.50242 -23,-16 -18.92246,-7.33322 -36.03205,14.8264 -57,12 -6.87684,0.76024 -57.99554,5.4371 -37,0 37.65518,-13.39456 70.2509,-39.00374 106,-57 17.89757,-10.66652 40.2944,-35.90177 60,-16 2.41379,14.81856 -20.82455,26.52471 -26,35 11.1255,15.61771 33.38164,16.29312 42,-3 19.16442,-17.77328 17.28411,-55.13808 -12,-61 C 894.62104,885.58155 865.69313,877.9026 841,860 767.20677,814.06032 698.3448,756.33826 636,690 593.65958,645.87732 549.58746,597.99889 524,545 c -0.46312,-34.50711 -8.47562,-70.9309 -45,-80 z m 132,517 c 29.54229,2.78149 51.83555,23.0637 78,34 21.06879,12.0578 -6.73559,18.9112 -17,22 -27.90985,0.8371 -71.49871,-8.9043 -66,-43 -0.54632,-5.13057 1.15529,-9.69958 5,-13 z M 487,919 c 27.99437,2.63289 49.11684,21.85599 74,32 17.78264,6.69323 22.93447,36.29206 13,48 -29.00029,-7.36613 -53.63728,-25.26621 -80,-39 -10.08221,-8.81731 -17.45693,-29.51664 -7,-41 z M 362,850 c 25.24718,1.35992 45.98623,21.97137 69,32 19.59993,5.97213 33.90789,32.05686 22,50 -21.71678,3.30302 -40.36631,-15.89613 -60,-24 -21.85704,-11.26082 -41.99243,-29.64434 -31,-58 z m 2,-152 c 4.19307,-3.2493 0.60759,5.4364 0,0 z m 0,-3 c 2.55494,-3.58745 2.55494,3.58745 0,0 z m -18,-55 c 14.11681,4.89703 18.53884,27.45335 31,38 46.34372,71.89274 112.09682,136.77439 175.29379,197.29379 C 593.57838,915.03827 639.42056,941.80638 684,976 c 18.49953,10.86101 39.63238,25.7646 59,27 -49.85077,4.082 -87.8262,-28.0905 -127,-53 -11.16439,-13.07624 -26.17481,-22.58065 -39,-34 1.27704,11.98717 10.02488,27.6181 -8,19 -14.27607,-12.0375 -8.41579,-37.05542 -28,-46 -28.39004,-24.70745 -59.83719,-57.35955 -84,-81 4.19524,19.92629 2.8159,44.72407 5,64 -18.73794,6.46604 -24.58606,-20.71475 -22,-36 0.46009,-26.26061 4.83402,-54.22456 -18,-70 -19.72747,-23.85273 -41.7394,-54.54647 -59,-75 3.36381,43.44769 -0.37492,88.42598 4,132 -22.92066,5.82794 -20.99573,-59.64914 -19,-45 -0.76088,-46.6723 -1.50481,-91.95892 -2,-138 z M 221,464 c -4.5585,14.04259 12.51221,33.89036 14,38 20.50947,14.00238 -19.81344,-73.45581 -6,-30 -1.3351,-4.99014 -1.8736,-7.79033 -8,-8 z m 12,37 c 4.19307,-3.2493 0.60759,5.4364 0,0 z m 102,-97 c -1.89932,22.15954 -9.78071,44.21559 -14,64 14.05515,5.59072 26.02205,16.2229 40,22 13.48707,-19.50182 22.28158,-44.66849 28,-65 -15.71736,0.9722 -46.31956,16.56806 -47,-9 -2.98255,-3.3648 -2.70096,-10.13874 -7,-12 z m 252,-10 c -20.71512,-3.59116 2.56989,28.28222 15,18 10.31605,0.2412 -17.94452,-10.55105 -15,-18 z m -17,0 c -15.23901,15.4111 -40.89238,23.80991 -50,44 2.98236,19.21485 26.10626,-0.54933 34,-7 13.65191,-12.79175 26.18968,-17.95418 16,-37 z m 56,-15 c -4.10428,16.58068 -20.44541,12.26008 -31,5 -3.08451,21.7239 33.01303,23.08254 33,1 2.69392,-1.24868 0.57141,-7.21963 -2,-6 z m -198,-3 c -15.98643,2.1308 -9.32048,24.26065 -20,34 -14.94096,26.53971 -25.91799,58.62328 -38,84 22.34356,-17.01202 24.63049,-46.64961 41,-68 10.29139,-14.50155 14.85003,-34.53324 17,-50 z m 131,-18 c -18.83333,-1.09398 -44.69501,-0.19852 -37,26.55762 -5.89065,21.50888 16.77104,31.99168 26.86253,10.57985 C 568.23066,392.10276 552.76956,369.42196 565,364 c -6.08107,3.88291 4.97131,-12.6529 -6,-6 z m 30,-8 c -10.83515,3.8715 -25.06022,18.98117 -18,30 13.05842,-3.38769 22.26421,-19.22015 34,-3 12.17972,11.66284 19.47056,-9.74125 6,-16 -6.85744,-4.70691 -13.27816,-10.85081 -22,-11 z m -319,-8 c -26.71467,6.00685 -38.59515,36.33122 -41,61 -3.93838,15.26171 -14.45767,37.36979 -4,51 10.36426,7.38042 15.56826,22.93073 25,33 -9.4185,16.25461 25.40884,20.34136 20,27 2.33372,-18.19407 16.90032,-43.94556 34,-44 -15.23679,-7.08823 -27.11272,-11.76039 -43,-14 15.51418,-3.94317 30.80182,-9.3335 32,-28 17.44336,-26.15563 18.00522,-70.85016 -16,-85 -3.54914,2.60189 -3.45086,-3.60189 -7,-1 z m -24,24 c 13.23567,3.02934 28.60433,8.97594 42,15 -2.79902,12.63553 -8.35459,24.12927 -13,36 -16.04724,-2.60969 -35.09778,-12.1954 -48,-8 11.41324,-12.2956 6.56609,-32.16147 19,-43 z m 212,-31 c 5.14225,23.40242 -25.92646,34.22323 -20,58 -8.85285,12.28913 16.3448,8.96918 23,15 17.71659,3.67848 37.9582,6.09215 57,3 -8.85417,-15.17911 -8.62195,-35.81858 -2,-52 -16.48675,-3.54024 -31.80563,9.12684 -34,-7 -7.68577,-5.33697 -20.18267,-7.08678 -24,-17 z m -173,-8 c -16.54176,3.37761 -10.02645,4.9805 2,10 38.67442,26.17943 29.12634,80.63811 10,113 4.8248,21.80616 23.16018,7.21688 21,-8 13.30535,-33.81868 12.06678,-74.65376 -15,-102 -3.99,-5.82091 -11.19029,-11.68952 -18,-13 z m 13,-9 c -6.18744,8.74856 24.00407,41.23856 22,30 10.54386,14.61675 9.5451,38.9007 29,46 -0.79965,20.72619 10.13196,30.07405 31.55762,24 21.9788,3.689 22.8085,-27.04948 34.44238,-41 0.68457,-6.50125 -21.94105,18.01391 -19,13 -27.42837,10.0364 -48.39734,-10.96698 -58,-34 -9.14249,-15.58353 -22.44306,-32.1497 -40,-38 z m 50,-22 c 6.96037,40.08718 55.70502,71.96897 95,54 13.44492,-14.87767 -11.5304,0.98249 -20,0 -35.05411,1.99024 -59.26424,-27.15699 -75,-54 z m 514,-18 c -61.06813,3.43112 -115.68312,22.44149 -168,47 -21.60384,11.0862 -44.20462,19.69882 -64,36 14.11229,18.64499 32.8346,-6.81151 49,-10 71.92742,-38.94615 152.85171,-59.82669 242,-54 64.41526,6.72686 121.2522,31.74949 172.4313,70.43126 60.5292,43.39648 109.0945,107.04211 156,164 C 1309.8938,604.95936 1378.1158,675.76941 1460,719 c 59.2173,29.74174 121.9127,51.08645 191,57 12.5532,1.92353 41.8771,-1.82467 58,-1 -64.288,-10.75239 -130.7319,-16.30007 -188,-44 -72.9439,-27.15386 -139.434,-76.38444 -195,-139 -48.3448,-44.00828 -84.4269,-97.55562 -125.4313,-146.43126 C 1160.129,399.54777 1116.0143,354.86285 1063,326 1004.3588,290.09821 936.90431,274.57949 862,278 Z m -531,-6 c -6.03742,10.27425 -3.1422,30.70415 12,23 2.87972,-9.09904 1.99313,-22.74165 -12,-23 z m -40,0 c -29.23339,17.43071 -71.48564,15.05079 -91,47 -18.4721,52.13778 -35.82588,104.73879 -54,157 -1.6955,19.50529 18.66161,37.64198 36,37 3.69646,-32.39206 17.69741,-60.51586 26,-91 11.54037,-36.9883 20.16663,-84.99643 61,-101 8.06948,-9.53387 34.72756,-6.46359 30,-22 -8.53899,-5.27009 -1.60381,-21.58405 -8,-27 z m -70,38 c 9.47576,1.65126 38.31456,20.28878 29,15 -9.49449,12.42391 -24.24979,-8.36702 -29,-15 z m 210,-52 c -1.03126,9.46634 9.82401,39.43204 17,19 1.67841,-11.55138 -4.39541,-20.81092 -17,-19 z m 19,-12 c 13.99347,27.99188 7.42547,65.60937 -7,91 20.39982,-18.57107 25.56997,-56.46254 15,-83 -3.82488,-3.01252 -4.08747,-5.81147 -8,-8 z m -30,-14 c -24.79249,8.58263 -51.31644,16.5807 -68,39 -0.0769,19.5442 31.95964,-11.47629 21,-12 25.13678,-13.15665 58.68293,-26.64933 87,-13 0.038,-17.81718 -27.80223,-13.14872 -40,-14 z m -42,-42 c -14.88295,2.93999 -33.76215,9.80923 -42,21 10.88484,-7.87519 37.56553,8.15455 32,19 -14.05113,-21.56551 -45.58724,-17.45393 -54,5 -22.67998,46.45734 12.6885,96.79821 53,119 19.04645,13.97626 55.52558,20.39046 71,4 -38.42788,19.579 -75.65814,-15.95986 -95,-45 -14.32104,-9.63989 -32.86611,-24.1542 -19,-43 7.41742,-12.65217 26.32496,2.67347 32,-14 26.98459,-18.16436 60.07391,-38.13049 94,-27 8.29419,3.24885 -26.83126,-27.21377 -20,-24 -15.02521,-10.07246 -33.1562,-14.20284 -52,-15 z" fill="#CBD5E1" fill-rule="evenodd"/>
</svg>
